<mxfile host="Electron" modified="2024-04-06T09:20:03.232Z" agent="Mozilla/5.0 (Macintosh; Intel Mac OS X 10_15_7) AppleWebKit/537.36 (KHTML, like Gecko) draw.io/22.0.3 Chrome/114.0.5735.289 Electron/25.8.4 Safari/537.36" etag="NccAcAtFqlivlk9WY6WA" version="22.0.3" type="device" pages="6">
  <diagram name="图1.1 单模态信息检索" id="lqUr2v882YNDlxCJ2LP0">
    <mxGraphModel dx="954" dy="612" grid="1" gridSize="10" guides="1" tooltips="1" connect="1" arrows="1" fold="1" page="1" pageScale="1" pageWidth="827" pageHeight="1169" math="0" shadow="0">
      <root>
        <mxCell id="0" />
        <mxCell id="1" parent="0" />
        <mxCell id="RU7mE9KCE-0tBLLWu-Wu-2" value="" style="sketch=0;pointerEvents=1;shadow=0;dashed=0;strokeColor=none;fillColor=#434445;aspect=fixed;labelPosition=center;verticalLabelPosition=bottom;verticalAlign=top;align=center;outlineConnect=0;shape=mxgraph.vvd.document;strokeWidth=3;" vertex="1" parent="1">
          <mxGeometry x="596.5" y="325.41" width="80" height="109.59" as="geometry" />
        </mxCell>
        <mxCell id="RU7mE9KCE-0tBLLWu-Wu-3" value="" style="rounded=0;orthogonalLoop=1;jettySize=auto;entryX=0;entryY=0.5;entryDx=0;entryDy=0;endArrow=none;endFill=0;exitX=1;exitY=0.5;exitDx=0;exitDy=0;fontSize=14;verticalAlign=bottom;fontStyle=1;" edge="1" parent="1" source="RU7mE9KCE-0tBLLWu-Wu-8" target="RU7mE9KCE-0tBLLWu-Wu-32">
          <mxGeometry relative="1" as="geometry" />
        </mxCell>
        <mxCell id="RU7mE9KCE-0tBLLWu-Wu-4" value="" style="edgeStyle=orthogonalEdgeStyle;rounded=0;orthogonalLoop=1;jettySize=auto;entryX=0;entryY=0.5;entryDx=0;entryDy=0;endArrow=none;endFill=0;fontSize=14;verticalAlign=bottom;fontStyle=1;" edge="1" parent="1" source="RU7mE9KCE-0tBLLWu-Wu-8" target="RU7mE9KCE-0tBLLWu-Wu-36">
          <mxGeometry relative="1" as="geometry" />
        </mxCell>
        <mxCell id="RU7mE9KCE-0tBLLWu-Wu-5" value="" style="rounded=0;orthogonalLoop=1;jettySize=auto;entryX=0;entryY=0.5;entryDx=0;entryDy=0;endArrow=none;endFill=0;exitX=1;exitY=0.5;exitDx=0;exitDy=0;fontSize=14;verticalAlign=bottom;fontStyle=1;" edge="1" parent="1" source="RU7mE9KCE-0tBLLWu-Wu-8" target="RU7mE9KCE-0tBLLWu-Wu-18">
          <mxGeometry relative="1" as="geometry" />
        </mxCell>
        <mxCell id="RU7mE9KCE-0tBLLWu-Wu-6" value="" style="rounded=0;orthogonalLoop=1;jettySize=auto;entryX=0;entryY=0.5;entryDx=0;entryDy=0;endArrow=none;endFill=0;exitX=1;exitY=0.5;exitDx=0;exitDy=0;fontSize=14;verticalAlign=bottom;fontStyle=1;" edge="1" parent="1" source="RU7mE9KCE-0tBLLWu-Wu-8" target="RU7mE9KCE-0tBLLWu-Wu-28">
          <mxGeometry relative="1" as="geometry" />
        </mxCell>
        <mxCell id="RU7mE9KCE-0tBLLWu-Wu-7" value="" style="rounded=0;orthogonalLoop=1;jettySize=auto;entryX=0;entryY=0.5;entryDx=0;entryDy=0;endArrow=none;endFill=0;exitX=1;exitY=0.5;exitDx=0;exitDy=0;fontSize=14;verticalAlign=bottom;fontStyle=1;" edge="1" parent="1" source="RU7mE9KCE-0tBLLWu-Wu-8" target="RU7mE9KCE-0tBLLWu-Wu-40">
          <mxGeometry relative="1" as="geometry" />
        </mxCell>
        <mxCell id="RU7mE9KCE-0tBLLWu-Wu-8" value="" style="ellipse;aspect=fixed;fontSize=14;verticalAlign=bottom;fontStyle=1;fillColor=#d5e8d4;strokeColor=#82b366;" vertex="1" parent="1">
          <mxGeometry x="280" y="325" width="30" height="30" as="geometry" />
        </mxCell>
        <mxCell id="RU7mE9KCE-0tBLLWu-Wu-9" value="" style="rounded=0;orthogonalLoop=1;jettySize=auto;entryX=0;entryY=0.5;entryDx=0;entryDy=0;endArrow=none;endFill=0;exitX=1;exitY=0.5;exitDx=0;exitDy=0;fontSize=14;verticalAlign=bottom;fontStyle=1;" edge="1" parent="1" source="RU7mE9KCE-0tBLLWu-Wu-14" target="RU7mE9KCE-0tBLLWu-Wu-32">
          <mxGeometry relative="1" as="geometry" />
        </mxCell>
        <mxCell id="RU7mE9KCE-0tBLLWu-Wu-10" value="" style="rounded=0;orthogonalLoop=1;jettySize=auto;entryX=0;entryY=0.5;entryDx=0;entryDy=0;endArrow=none;endFill=0;exitX=1;exitY=0.5;exitDx=0;exitDy=0;fontSize=14;verticalAlign=bottom;fontStyle=1;" edge="1" parent="1" source="RU7mE9KCE-0tBLLWu-Wu-14" target="RU7mE9KCE-0tBLLWu-Wu-36">
          <mxGeometry relative="1" as="geometry" />
        </mxCell>
        <mxCell id="RU7mE9KCE-0tBLLWu-Wu-11" value="" style="rounded=0;orthogonalLoop=1;jettySize=auto;entryX=0;entryY=0.5;entryDx=0;entryDy=0;endArrow=none;endFill=0;fontSize=14;verticalAlign=bottom;fontStyle=1;" edge="1" parent="1" source="RU7mE9KCE-0tBLLWu-Wu-14" target="RU7mE9KCE-0tBLLWu-Wu-18">
          <mxGeometry relative="1" as="geometry" />
        </mxCell>
        <mxCell id="RU7mE9KCE-0tBLLWu-Wu-12" value="" style="rounded=0;orthogonalLoop=1;jettySize=auto;entryX=0;entryY=0.5;entryDx=0;entryDy=0;endArrow=none;endFill=0;exitX=1;exitY=0.5;exitDx=0;exitDy=0;fontSize=14;verticalAlign=bottom;fontStyle=1;" edge="1" parent="1" source="RU7mE9KCE-0tBLLWu-Wu-14" target="RU7mE9KCE-0tBLLWu-Wu-28">
          <mxGeometry relative="1" as="geometry" />
        </mxCell>
        <mxCell id="RU7mE9KCE-0tBLLWu-Wu-13" value="" style="rounded=0;orthogonalLoop=1;jettySize=auto;entryX=0;entryY=0.5;entryDx=0;entryDy=0;endArrow=none;endFill=0;exitX=1;exitY=0.5;exitDx=0;exitDy=0;fontSize=14;verticalAlign=bottom;fontStyle=1;" edge="1" parent="1" source="RU7mE9KCE-0tBLLWu-Wu-14" target="RU7mE9KCE-0tBLLWu-Wu-40">
          <mxGeometry relative="1" as="geometry" />
        </mxCell>
        <mxCell id="RU7mE9KCE-0tBLLWu-Wu-14" value="" style="ellipse;aspect=fixed;fontSize=14;verticalAlign=bottom;fontStyle=1;fillColor=#d5e8d4;strokeColor=#82b366;" vertex="1" parent="1">
          <mxGeometry x="280" y="365" width="30" height="30" as="geometry" />
        </mxCell>
        <mxCell id="RU7mE9KCE-0tBLLWu-Wu-15" value="" style="rounded=0;orthogonalLoop=1;jettySize=auto;entryX=0;entryY=0.5;entryDx=0;entryDy=0;endArrow=none;endFill=0;exitX=1;exitY=0.5;exitDx=0;exitDy=0;fontSize=14;verticalAlign=bottom;fontStyle=1;" edge="1" parent="1" source="RU7mE9KCE-0tBLLWu-Wu-18" target="RU7mE9KCE-0tBLLWu-Wu-41">
          <mxGeometry relative="1" as="geometry" />
        </mxCell>
        <mxCell id="RU7mE9KCE-0tBLLWu-Wu-16" value="" style="rounded=0;orthogonalLoop=1;jettySize=auto;endArrow=none;endFill=0;fontSize=14;verticalAlign=bottom;fontStyle=1;" edge="1" parent="1" source="RU7mE9KCE-0tBLLWu-Wu-18" target="RU7mE9KCE-0tBLLWu-Wu-43">
          <mxGeometry relative="1" as="geometry" />
        </mxCell>
        <mxCell id="RU7mE9KCE-0tBLLWu-Wu-17" value="" style="rounded=0;orthogonalLoop=1;jettySize=auto;entryX=0;entryY=0.5;entryDx=0;entryDy=0;endArrow=none;endFill=0;exitX=1;exitY=0.5;exitDx=0;exitDy=0;fontSize=14;verticalAlign=bottom;fontStyle=1;" edge="1" parent="1" source="RU7mE9KCE-0tBLLWu-Wu-18" target="RU7mE9KCE-0tBLLWu-Wu-44">
          <mxGeometry relative="1" as="geometry" />
        </mxCell>
        <mxCell id="RU7mE9KCE-0tBLLWu-Wu-18" value="" style="ellipse;aspect=fixed;fontSize=14;verticalAlign=bottom;fontStyle=1;fillColor=#dae8fc;strokeColor=#6c8ebf;" vertex="1" parent="1">
          <mxGeometry x="360" y="365" width="30" height="30" as="geometry" />
        </mxCell>
        <mxCell id="RU7mE9KCE-0tBLLWu-Wu-19" value="" style="rounded=0;orthogonalLoop=1;jettySize=auto;entryX=0;entryY=0.5;entryDx=0;entryDy=0;endArrow=none;endFill=0;exitX=1;exitY=0.5;exitDx=0;exitDy=0;fontSize=14;verticalAlign=bottom;fontStyle=1;" edge="1" parent="1" source="RU7mE9KCE-0tBLLWu-Wu-24" target="RU7mE9KCE-0tBLLWu-Wu-32">
          <mxGeometry relative="1" as="geometry" />
        </mxCell>
        <mxCell id="RU7mE9KCE-0tBLLWu-Wu-20" value="" style="rounded=0;orthogonalLoop=1;jettySize=auto;entryX=0;entryY=0.5;entryDx=0;entryDy=0;endArrow=none;endFill=0;exitX=1;exitY=0.5;exitDx=0;exitDy=0;fontSize=14;verticalAlign=bottom;fontStyle=1;" edge="1" parent="1" source="RU7mE9KCE-0tBLLWu-Wu-24" target="RU7mE9KCE-0tBLLWu-Wu-36">
          <mxGeometry relative="1" as="geometry" />
        </mxCell>
        <mxCell id="RU7mE9KCE-0tBLLWu-Wu-21" value="" style="rounded=0;orthogonalLoop=1;jettySize=auto;entryX=0;entryY=0.5;entryDx=0;entryDy=0;endArrow=none;endFill=0;exitX=1;exitY=0.5;exitDx=0;exitDy=0;fontSize=14;verticalAlign=bottom;fontStyle=1;" edge="1" parent="1" source="RU7mE9KCE-0tBLLWu-Wu-24" target="RU7mE9KCE-0tBLLWu-Wu-18">
          <mxGeometry relative="1" as="geometry" />
        </mxCell>
        <mxCell id="RU7mE9KCE-0tBLLWu-Wu-22" value="" style="rounded=0;orthogonalLoop=1;jettySize=auto;entryX=0;entryY=0.5;entryDx=0;entryDy=0;endArrow=none;endFill=0;fontSize=14;verticalAlign=bottom;fontStyle=1;" edge="1" parent="1" source="RU7mE9KCE-0tBLLWu-Wu-24" target="RU7mE9KCE-0tBLLWu-Wu-28">
          <mxGeometry relative="1" as="geometry" />
        </mxCell>
        <mxCell id="RU7mE9KCE-0tBLLWu-Wu-23" value="" style="rounded=0;orthogonalLoop=1;jettySize=auto;entryX=0;entryY=0.5;entryDx=0;entryDy=0;endArrow=none;endFill=0;exitX=1;exitY=0.5;exitDx=0;exitDy=0;fontSize=14;verticalAlign=bottom;fontStyle=1;" edge="1" parent="1" source="RU7mE9KCE-0tBLLWu-Wu-24" target="RU7mE9KCE-0tBLLWu-Wu-40">
          <mxGeometry relative="1" as="geometry" />
        </mxCell>
        <mxCell id="RU7mE9KCE-0tBLLWu-Wu-24" value="" style="ellipse;aspect=fixed;fontSize=14;verticalAlign=bottom;fontStyle=1;fillColor=#d5e8d4;strokeColor=#82b366;" vertex="1" parent="1">
          <mxGeometry x="280" y="405" width="30" height="30" as="geometry" />
        </mxCell>
        <mxCell id="RU7mE9KCE-0tBLLWu-Wu-25" value="" style="rounded=0;orthogonalLoop=1;jettySize=auto;entryX=0;entryY=0.5;entryDx=0;entryDy=0;endArrow=none;endFill=0;exitX=1;exitY=0.5;exitDx=0;exitDy=0;fontSize=14;verticalAlign=bottom;fontStyle=1;" edge="1" parent="1" source="RU7mE9KCE-0tBLLWu-Wu-28" target="RU7mE9KCE-0tBLLWu-Wu-41">
          <mxGeometry relative="1" as="geometry" />
        </mxCell>
        <mxCell id="RU7mE9KCE-0tBLLWu-Wu-26" value="" style="rounded=0;orthogonalLoop=1;jettySize=auto;endArrow=none;endFill=0;fontSize=14;verticalAlign=bottom;fontStyle=1;" edge="1" parent="1" source="RU7mE9KCE-0tBLLWu-Wu-28" target="RU7mE9KCE-0tBLLWu-Wu-44">
          <mxGeometry relative="1" as="geometry" />
        </mxCell>
        <mxCell id="RU7mE9KCE-0tBLLWu-Wu-27" value="" style="rounded=0;orthogonalLoop=1;jettySize=auto;entryX=0;entryY=0.5;entryDx=0;entryDy=0;endArrow=none;endFill=0;exitX=1;exitY=0.5;exitDx=0;exitDy=0;fontSize=14;verticalAlign=bottom;fontStyle=1;" edge="1" parent="1" source="RU7mE9KCE-0tBLLWu-Wu-28" target="RU7mE9KCE-0tBLLWu-Wu-43">
          <mxGeometry relative="1" as="geometry" />
        </mxCell>
        <mxCell id="RU7mE9KCE-0tBLLWu-Wu-28" value="" style="ellipse;aspect=fixed;fontSize=14;verticalAlign=bottom;fontStyle=1;fillColor=#dae8fc;strokeColor=#6c8ebf;" vertex="1" parent="1">
          <mxGeometry x="360" y="405" width="30" height="30" as="geometry" />
        </mxCell>
        <mxCell id="RU7mE9KCE-0tBLLWu-Wu-29" value="" style="rounded=0;orthogonalLoop=1;jettySize=auto;entryX=0;entryY=0.5;entryDx=0;entryDy=0;endArrow=none;endFill=0;exitX=1;exitY=0.5;exitDx=0;exitDy=0;fontSize=14;verticalAlign=bottom;fontStyle=1;" edge="1" parent="1" source="RU7mE9KCE-0tBLLWu-Wu-32" target="RU7mE9KCE-0tBLLWu-Wu-41">
          <mxGeometry relative="1" as="geometry" />
        </mxCell>
        <mxCell id="RU7mE9KCE-0tBLLWu-Wu-30" value="" style="rounded=0;orthogonalLoop=1;jettySize=auto;entryX=0;entryY=0.5;entryDx=0;entryDy=0;endArrow=none;endFill=0;exitX=1;exitY=0.5;exitDx=0;exitDy=0;fontSize=14;verticalAlign=bottom;fontStyle=1;" edge="1" parent="1" source="RU7mE9KCE-0tBLLWu-Wu-32" target="RU7mE9KCE-0tBLLWu-Wu-43">
          <mxGeometry relative="1" as="geometry" />
        </mxCell>
        <mxCell id="RU7mE9KCE-0tBLLWu-Wu-31" value="" style="rounded=0;orthogonalLoop=1;jettySize=auto;entryX=0;entryY=0.5;entryDx=0;entryDy=0;endArrow=none;endFill=0;exitX=1;exitY=0.5;exitDx=0;exitDy=0;fontSize=14;verticalAlign=bottom;fontStyle=1;" edge="1" parent="1" source="RU7mE9KCE-0tBLLWu-Wu-32" target="RU7mE9KCE-0tBLLWu-Wu-44">
          <mxGeometry relative="1" as="geometry" />
        </mxCell>
        <mxCell id="RU7mE9KCE-0tBLLWu-Wu-32" value="" style="ellipse;aspect=fixed;fontSize=14;verticalAlign=bottom;fontStyle=1;fillColor=#dae8fc;strokeColor=#6c8ebf;" vertex="1" parent="1">
          <mxGeometry x="360" y="285" width="30" height="30" as="geometry" />
        </mxCell>
        <mxCell id="RU7mE9KCE-0tBLLWu-Wu-33" value="" style="rounded=0;orthogonalLoop=1;jettySize=auto;entryX=0;entryY=0.5;entryDx=0;entryDy=0;endArrow=none;endFill=0;fontSize=14;verticalAlign=bottom;fontStyle=1;" edge="1" parent="1" source="RU7mE9KCE-0tBLLWu-Wu-36" target="RU7mE9KCE-0tBLLWu-Wu-41">
          <mxGeometry relative="1" as="geometry" />
        </mxCell>
        <mxCell id="RU7mE9KCE-0tBLLWu-Wu-34" value="" style="rounded=0;orthogonalLoop=1;jettySize=auto;entryX=0;entryY=0.5;entryDx=0;entryDy=0;endArrow=none;endFill=0;exitX=1;exitY=0.5;exitDx=0;exitDy=0;fontSize=14;verticalAlign=bottom;fontStyle=1;" edge="1" parent="1" source="RU7mE9KCE-0tBLLWu-Wu-36" target="RU7mE9KCE-0tBLLWu-Wu-43">
          <mxGeometry relative="1" as="geometry" />
        </mxCell>
        <mxCell id="RU7mE9KCE-0tBLLWu-Wu-35" value="" style="rounded=0;orthogonalLoop=1;jettySize=auto;entryX=0;entryY=0.5;entryDx=0;entryDy=0;endArrow=none;endFill=0;exitX=1;exitY=0.5;exitDx=0;exitDy=0;fontSize=14;verticalAlign=bottom;fontStyle=1;" edge="1" parent="1" source="RU7mE9KCE-0tBLLWu-Wu-36" target="RU7mE9KCE-0tBLLWu-Wu-44">
          <mxGeometry relative="1" as="geometry" />
        </mxCell>
        <mxCell id="RU7mE9KCE-0tBLLWu-Wu-36" value="" style="ellipse;aspect=fixed;fontSize=14;verticalAlign=bottom;fontStyle=1;fillColor=#dae8fc;strokeColor=#6c8ebf;" vertex="1" parent="1">
          <mxGeometry x="360" y="325" width="30" height="30" as="geometry" />
        </mxCell>
        <mxCell id="RU7mE9KCE-0tBLLWu-Wu-37" value="" style="rounded=0;orthogonalLoop=1;jettySize=auto;entryX=0;entryY=0.5;entryDx=0;entryDy=0;endArrow=none;endFill=0;exitX=1;exitY=0.5;exitDx=0;exitDy=0;fontSize=14;verticalAlign=bottom;fontStyle=1;" edge="1" parent="1" source="RU7mE9KCE-0tBLLWu-Wu-40" target="RU7mE9KCE-0tBLLWu-Wu-41">
          <mxGeometry relative="1" as="geometry" />
        </mxCell>
        <mxCell id="RU7mE9KCE-0tBLLWu-Wu-38" value="" style="rounded=0;orthogonalLoop=1;jettySize=auto;entryX=0;entryY=0.5;entryDx=0;entryDy=0;endArrow=none;endFill=0;exitX=1;exitY=0.5;exitDx=0;exitDy=0;fontSize=14;verticalAlign=bottom;fontStyle=1;" edge="1" parent="1" source="RU7mE9KCE-0tBLLWu-Wu-40" target="RU7mE9KCE-0tBLLWu-Wu-43">
          <mxGeometry relative="1" as="geometry">
            <mxPoint x="384.4357664328396" y="444.99954066836085" as="sourcePoint" />
            <mxPoint x="440" y="376.65999999999985" as="targetPoint" />
          </mxGeometry>
        </mxCell>
        <mxCell id="RU7mE9KCE-0tBLLWu-Wu-39" value="" style="rounded=0;orthogonalLoop=1;jettySize=auto;entryX=0;entryY=0.5;entryDx=0;entryDy=0;endArrow=none;endFill=0;exitX=1;exitY=0.5;exitDx=0;exitDy=0;fontSize=14;verticalAlign=bottom;fontStyle=1;" edge="1" parent="1" source="RU7mE9KCE-0tBLLWu-Wu-40" target="RU7mE9KCE-0tBLLWu-Wu-44">
          <mxGeometry relative="1" as="geometry" />
        </mxCell>
        <mxCell id="RU7mE9KCE-0tBLLWu-Wu-40" value="" style="ellipse;aspect=fixed;fontSize=14;verticalAlign=bottom;fontStyle=1;fillColor=#dae8fc;strokeColor=#6c8ebf;" vertex="1" parent="1">
          <mxGeometry x="360" y="445" width="30" height="30" as="geometry" />
        </mxCell>
        <mxCell id="RU7mE9KCE-0tBLLWu-Wu-41" value="" style="ellipse;aspect=fixed;fontSize=14;verticalAlign=bottom;fontStyle=1;fillColor=#e1d5e7;strokeColor=#9673a6;" vertex="1" parent="1">
          <mxGeometry x="440" y="325" width="30" height="30" as="geometry" />
        </mxCell>
        <mxCell id="RU7mE9KCE-0tBLLWu-Wu-42" value="" style="edgeStyle=orthogonalEdgeStyle;rounded=0;orthogonalLoop=1;jettySize=auto;" edge="1" parent="1" source="RU7mE9KCE-0tBLLWu-Wu-43" target="RU7mE9KCE-0tBLLWu-Wu-2">
          <mxGeometry relative="1" as="geometry" />
        </mxCell>
        <mxCell id="RU7mE9KCE-0tBLLWu-Wu-43" value="" style="ellipse;aspect=fixed;fontSize=14;verticalAlign=bottom;fontStyle=1;fillColor=#e1d5e7;strokeColor=#9673a6;" vertex="1" parent="1">
          <mxGeometry x="440" y="365" width="30" height="30" as="geometry" />
        </mxCell>
        <mxCell id="RU7mE9KCE-0tBLLWu-Wu-44" value="" style="ellipse;aspect=fixed;fontSize=14;verticalAlign=bottom;fontStyle=1;fillColor=#e1d5e7;strokeColor=#9673a6;" vertex="1" parent="1">
          <mxGeometry x="440" y="405" width="30" height="30" as="geometry" />
        </mxCell>
        <mxCell id="RU7mE9KCE-0tBLLWu-Wu-45" value="" style="edgeStyle=orthogonalEdgeStyle;rounded=0;orthogonalLoop=1;jettySize=auto;entryX=0;entryY=0.5;entryDx=0;entryDy=0;" edge="1" parent="1" source="RU7mE9KCE-0tBLLWu-Wu-46" target="RU7mE9KCE-0tBLLWu-Wu-14">
          <mxGeometry relative="1" as="geometry" />
        </mxCell>
        <mxCell id="RU7mE9KCE-0tBLLWu-Wu-46" value="ABC" style="rounded=1;fontSize=21;fontStyle=1;strokeWidth=3;" vertex="1" parent="1">
          <mxGeometry x="30" y="340" width="120" height="80" as="geometry" />
        </mxCell>
        <mxCell id="RU7mE9KCE-0tBLLWu-Wu-47" value="Train" style="text;strokeColor=none;fillColor=none;align=center;verticalAlign=middle;rounded=0;fontSize=14;fontStyle=1" vertex="1" parent="1">
          <mxGeometry x="180" y="350" width="60" height="30" as="geometry" />
        </mxCell>
        <mxCell id="RU7mE9KCE-0tBLLWu-Wu-48" value="Predict" style="text;strokeColor=none;fillColor=none;align=center;verticalAlign=middle;rounded=0;fontSize=14;fontStyle=1" vertex="1" parent="1">
          <mxGeometry x="500" y="350" width="60" height="30" as="geometry" />
        </mxCell>
        <mxCell id="RU7mE9KCE-0tBLLWu-Wu-49" value="Text" style="text;strokeColor=none;fillColor=none;align=center;verticalAlign=middle;rounded=0;fontSize=16;fontStyle=1;fontColor=#FF0000;" vertex="1" parent="1">
          <mxGeometry x="60" y="295" width="60" height="30" as="geometry" />
        </mxCell>
        <mxCell id="RU7mE9KCE-0tBLLWu-Wu-50" value="NLP Result" style="text;strokeColor=none;fillColor=none;align=center;verticalAlign=middle;rounded=0;fontSize=16;fontStyle=1;fontColor=#FF0000;" vertex="1" parent="1">
          <mxGeometry x="596.5" y="295" width="80" height="25" as="geometry" />
        </mxCell>
      </root>
    </mxGraphModel>
  </diagram>
  <diagram id="Zb9UL25v8pbg7twmtDlv" name="图1.2 多模态信息检索">
    <mxGraphModel dx="954" dy="612" grid="1" gridSize="10" guides="1" tooltips="1" connect="1" arrows="1" fold="1" page="1" pageScale="1" pageWidth="827" pageHeight="1169" math="0" shadow="0">
      <root>
        <mxCell id="0" />
        <mxCell id="1" parent="0" />
        <mxCell id="qw2Tmhx3cPR6AS1ictm0-1" value="" style="sketch=0;pointerEvents=1;shadow=0;dashed=0;strokeColor=none;fillColor=#434445;aspect=fixed;labelPosition=center;verticalLabelPosition=bottom;verticalAlign=top;align=center;outlineConnect=0;shape=mxgraph.vvd.document;strokeWidth=3;" vertex="1" parent="1">
          <mxGeometry x="640" y="85" width="73" height="100" as="geometry" />
        </mxCell>
        <mxCell id="qw2Tmhx3cPR6AS1ictm0-2" value="" style="rounded=0;orthogonalLoop=1;jettySize=auto;entryX=0;entryY=0.5;entryDx=0;entryDy=0;endArrow=none;endFill=0;exitX=1;exitY=0.5;exitDx=0;exitDy=0;fontSize=14;verticalAlign=bottom;fontStyle=1;" edge="1" parent="1" source="qw2Tmhx3cPR6AS1ictm0-7" target="qw2Tmhx3cPR6AS1ictm0-31">
          <mxGeometry relative="1" as="geometry" />
        </mxCell>
        <mxCell id="qw2Tmhx3cPR6AS1ictm0-3" value="" style="edgeStyle=orthogonalEdgeStyle;rounded=0;orthogonalLoop=1;jettySize=auto;entryX=0;entryY=0.5;entryDx=0;entryDy=0;endArrow=none;endFill=0;fontSize=14;verticalAlign=bottom;fontStyle=1;" edge="1" parent="1" source="qw2Tmhx3cPR6AS1ictm0-7" target="qw2Tmhx3cPR6AS1ictm0-35">
          <mxGeometry relative="1" as="geometry" />
        </mxCell>
        <mxCell id="qw2Tmhx3cPR6AS1ictm0-4" value="" style="rounded=0;orthogonalLoop=1;jettySize=auto;entryX=0;entryY=0.5;entryDx=0;entryDy=0;endArrow=none;endFill=0;exitX=1;exitY=0.5;exitDx=0;exitDy=0;fontSize=14;verticalAlign=bottom;fontStyle=1;" edge="1" parent="1" source="qw2Tmhx3cPR6AS1ictm0-7" target="qw2Tmhx3cPR6AS1ictm0-17">
          <mxGeometry relative="1" as="geometry" />
        </mxCell>
        <mxCell id="qw2Tmhx3cPR6AS1ictm0-5" value="" style="rounded=0;orthogonalLoop=1;jettySize=auto;entryX=0;entryY=0.5;entryDx=0;entryDy=0;endArrow=none;endFill=0;exitX=1;exitY=0.5;exitDx=0;exitDy=0;fontSize=14;verticalAlign=bottom;fontStyle=1;" edge="1" parent="1" source="qw2Tmhx3cPR6AS1ictm0-7" target="qw2Tmhx3cPR6AS1ictm0-27">
          <mxGeometry relative="1" as="geometry" />
        </mxCell>
        <mxCell id="qw2Tmhx3cPR6AS1ictm0-6" value="" style="rounded=0;orthogonalLoop=1;jettySize=auto;entryX=0;entryY=0.5;entryDx=0;entryDy=0;endArrow=none;endFill=0;exitX=1;exitY=0.5;exitDx=0;exitDy=0;fontSize=14;verticalAlign=bottom;fontStyle=1;" edge="1" parent="1" source="qw2Tmhx3cPR6AS1ictm0-7" target="qw2Tmhx3cPR6AS1ictm0-39">
          <mxGeometry relative="1" as="geometry" />
        </mxCell>
        <mxCell id="qw2Tmhx3cPR6AS1ictm0-7" value="" style="ellipse;aspect=fixed;fontSize=14;verticalAlign=bottom;fontStyle=1;fillColor=#d5e8d4;strokeColor=#82b366;" vertex="1" parent="1">
          <mxGeometry x="297" y="260" width="30" height="30" as="geometry" />
        </mxCell>
        <mxCell id="qw2Tmhx3cPR6AS1ictm0-8" value="" style="rounded=0;orthogonalLoop=1;jettySize=auto;entryX=0;entryY=0.5;entryDx=0;entryDy=0;endArrow=none;endFill=0;exitX=1;exitY=0.5;exitDx=0;exitDy=0;fontSize=14;verticalAlign=bottom;fontStyle=1;" edge="1" parent="1" source="qw2Tmhx3cPR6AS1ictm0-13" target="qw2Tmhx3cPR6AS1ictm0-31">
          <mxGeometry relative="1" as="geometry" />
        </mxCell>
        <mxCell id="qw2Tmhx3cPR6AS1ictm0-9" value="" style="rounded=0;orthogonalLoop=1;jettySize=auto;entryX=0;entryY=0.5;entryDx=0;entryDy=0;endArrow=none;endFill=0;exitX=1;exitY=0.5;exitDx=0;exitDy=0;fontSize=14;verticalAlign=bottom;fontStyle=1;" edge="1" parent="1" source="qw2Tmhx3cPR6AS1ictm0-13" target="qw2Tmhx3cPR6AS1ictm0-35">
          <mxGeometry relative="1" as="geometry" />
        </mxCell>
        <mxCell id="qw2Tmhx3cPR6AS1ictm0-10" value="" style="rounded=0;orthogonalLoop=1;jettySize=auto;entryX=0;entryY=0.5;entryDx=0;entryDy=0;endArrow=none;endFill=0;fontSize=14;verticalAlign=bottom;fontStyle=1;" edge="1" parent="1" source="qw2Tmhx3cPR6AS1ictm0-13" target="qw2Tmhx3cPR6AS1ictm0-17">
          <mxGeometry relative="1" as="geometry" />
        </mxCell>
        <mxCell id="qw2Tmhx3cPR6AS1ictm0-11" value="" style="rounded=0;orthogonalLoop=1;jettySize=auto;entryX=0;entryY=0.5;entryDx=0;entryDy=0;endArrow=none;endFill=0;exitX=1;exitY=0.5;exitDx=0;exitDy=0;fontSize=14;verticalAlign=bottom;fontStyle=1;" edge="1" parent="1" source="qw2Tmhx3cPR6AS1ictm0-13" target="qw2Tmhx3cPR6AS1ictm0-27">
          <mxGeometry relative="1" as="geometry" />
        </mxCell>
        <mxCell id="qw2Tmhx3cPR6AS1ictm0-12" value="" style="rounded=0;orthogonalLoop=1;jettySize=auto;entryX=0;entryY=0.5;entryDx=0;entryDy=0;endArrow=none;endFill=0;exitX=1;exitY=0.5;exitDx=0;exitDy=0;fontSize=14;verticalAlign=bottom;fontStyle=1;" edge="1" parent="1" source="qw2Tmhx3cPR6AS1ictm0-13" target="qw2Tmhx3cPR6AS1ictm0-39">
          <mxGeometry relative="1" as="geometry" />
        </mxCell>
        <mxCell id="qw2Tmhx3cPR6AS1ictm0-13" value="" style="ellipse;aspect=fixed;fontSize=14;verticalAlign=bottom;fontStyle=1;fillColor=#d5e8d4;strokeColor=#82b366;" vertex="1" parent="1">
          <mxGeometry x="297" y="300" width="30" height="30" as="geometry" />
        </mxCell>
        <mxCell id="qw2Tmhx3cPR6AS1ictm0-14" value="" style="rounded=0;orthogonalLoop=1;jettySize=auto;entryX=0;entryY=0.5;entryDx=0;entryDy=0;endArrow=none;endFill=0;exitX=1;exitY=0.5;exitDx=0;exitDy=0;fontSize=14;verticalAlign=bottom;fontStyle=1;" edge="1" parent="1" source="qw2Tmhx3cPR6AS1ictm0-17" target="qw2Tmhx3cPR6AS1ictm0-40">
          <mxGeometry relative="1" as="geometry" />
        </mxCell>
        <mxCell id="qw2Tmhx3cPR6AS1ictm0-15" value="" style="rounded=0;orthogonalLoop=1;jettySize=auto;endArrow=none;endFill=0;fontSize=14;verticalAlign=bottom;fontStyle=1;" edge="1" parent="1" source="qw2Tmhx3cPR6AS1ictm0-17" target="qw2Tmhx3cPR6AS1ictm0-43">
          <mxGeometry relative="1" as="geometry" />
        </mxCell>
        <mxCell id="qw2Tmhx3cPR6AS1ictm0-16" value="" style="rounded=0;orthogonalLoop=1;jettySize=auto;entryX=0;entryY=0.5;entryDx=0;entryDy=0;endArrow=none;endFill=0;exitX=1;exitY=0.5;exitDx=0;exitDy=0;fontSize=14;verticalAlign=bottom;fontStyle=1;" edge="1" parent="1" source="qw2Tmhx3cPR6AS1ictm0-17" target="qw2Tmhx3cPR6AS1ictm0-44">
          <mxGeometry relative="1" as="geometry" />
        </mxCell>
        <mxCell id="qw2Tmhx3cPR6AS1ictm0-17" value="" style="ellipse;aspect=fixed;fontSize=14;verticalAlign=bottom;fontStyle=1;fillColor=#dae8fc;strokeColor=#6c8ebf;" vertex="1" parent="1">
          <mxGeometry x="377" y="300" width="30" height="30" as="geometry" />
        </mxCell>
        <mxCell id="qw2Tmhx3cPR6AS1ictm0-18" value="" style="rounded=0;orthogonalLoop=1;jettySize=auto;entryX=0;entryY=0.5;entryDx=0;entryDy=0;endArrow=none;endFill=0;exitX=1;exitY=0.5;exitDx=0;exitDy=0;fontSize=14;verticalAlign=bottom;fontStyle=1;" edge="1" parent="1" source="qw2Tmhx3cPR6AS1ictm0-23" target="qw2Tmhx3cPR6AS1ictm0-31">
          <mxGeometry relative="1" as="geometry" />
        </mxCell>
        <mxCell id="qw2Tmhx3cPR6AS1ictm0-19" value="" style="rounded=0;orthogonalLoop=1;jettySize=auto;entryX=0;entryY=0.5;entryDx=0;entryDy=0;endArrow=none;endFill=0;exitX=1;exitY=0.5;exitDx=0;exitDy=0;fontSize=14;verticalAlign=bottom;fontStyle=1;" edge="1" parent="1" source="qw2Tmhx3cPR6AS1ictm0-23" target="qw2Tmhx3cPR6AS1ictm0-35">
          <mxGeometry relative="1" as="geometry" />
        </mxCell>
        <mxCell id="qw2Tmhx3cPR6AS1ictm0-20" value="" style="rounded=0;orthogonalLoop=1;jettySize=auto;entryX=0;entryY=0.5;entryDx=0;entryDy=0;endArrow=none;endFill=0;exitX=1;exitY=0.5;exitDx=0;exitDy=0;fontSize=14;verticalAlign=bottom;fontStyle=1;" edge="1" parent="1" source="qw2Tmhx3cPR6AS1ictm0-23" target="qw2Tmhx3cPR6AS1ictm0-17">
          <mxGeometry relative="1" as="geometry" />
        </mxCell>
        <mxCell id="qw2Tmhx3cPR6AS1ictm0-21" value="" style="rounded=0;orthogonalLoop=1;jettySize=auto;entryX=0;entryY=0.5;entryDx=0;entryDy=0;endArrow=none;endFill=0;fontSize=14;verticalAlign=bottom;fontStyle=1;" edge="1" parent="1" source="qw2Tmhx3cPR6AS1ictm0-23" target="qw2Tmhx3cPR6AS1ictm0-27">
          <mxGeometry relative="1" as="geometry" />
        </mxCell>
        <mxCell id="qw2Tmhx3cPR6AS1ictm0-22" value="" style="rounded=0;orthogonalLoop=1;jettySize=auto;entryX=0;entryY=0.5;entryDx=0;entryDy=0;endArrow=none;endFill=0;exitX=1;exitY=0.5;exitDx=0;exitDy=0;fontSize=14;verticalAlign=bottom;fontStyle=1;" edge="1" parent="1" source="qw2Tmhx3cPR6AS1ictm0-23" target="qw2Tmhx3cPR6AS1ictm0-39">
          <mxGeometry relative="1" as="geometry" />
        </mxCell>
        <mxCell id="qw2Tmhx3cPR6AS1ictm0-23" value="" style="ellipse;aspect=fixed;fontSize=14;verticalAlign=bottom;fontStyle=1;fillColor=#d5e8d4;strokeColor=#82b366;" vertex="1" parent="1">
          <mxGeometry x="297" y="340" width="30" height="30" as="geometry" />
        </mxCell>
        <mxCell id="qw2Tmhx3cPR6AS1ictm0-24" value="" style="rounded=0;orthogonalLoop=1;jettySize=auto;entryX=0;entryY=0.5;entryDx=0;entryDy=0;endArrow=none;endFill=0;exitX=1;exitY=0.5;exitDx=0;exitDy=0;fontSize=14;verticalAlign=bottom;fontStyle=1;" edge="1" parent="1" source="qw2Tmhx3cPR6AS1ictm0-27" target="qw2Tmhx3cPR6AS1ictm0-40">
          <mxGeometry relative="1" as="geometry" />
        </mxCell>
        <mxCell id="qw2Tmhx3cPR6AS1ictm0-25" value="" style="rounded=0;orthogonalLoop=1;jettySize=auto;endArrow=none;endFill=0;fontSize=14;verticalAlign=bottom;fontStyle=1;" edge="1" parent="1" source="qw2Tmhx3cPR6AS1ictm0-27" target="qw2Tmhx3cPR6AS1ictm0-44">
          <mxGeometry relative="1" as="geometry" />
        </mxCell>
        <mxCell id="qw2Tmhx3cPR6AS1ictm0-26" value="" style="rounded=0;orthogonalLoop=1;jettySize=auto;entryX=0;entryY=0.5;entryDx=0;entryDy=0;endArrow=none;endFill=0;exitX=1;exitY=0.5;exitDx=0;exitDy=0;fontSize=14;verticalAlign=bottom;fontStyle=1;" edge="1" parent="1" source="qw2Tmhx3cPR6AS1ictm0-27" target="qw2Tmhx3cPR6AS1ictm0-43">
          <mxGeometry relative="1" as="geometry" />
        </mxCell>
        <mxCell id="qw2Tmhx3cPR6AS1ictm0-27" value="" style="ellipse;aspect=fixed;fontSize=14;verticalAlign=bottom;fontStyle=1;fillColor=#dae8fc;strokeColor=#6c8ebf;" vertex="1" parent="1">
          <mxGeometry x="377" y="340" width="30" height="30" as="geometry" />
        </mxCell>
        <mxCell id="qw2Tmhx3cPR6AS1ictm0-28" value="" style="rounded=0;orthogonalLoop=1;jettySize=auto;entryX=0;entryY=0.5;entryDx=0;entryDy=0;endArrow=none;endFill=0;exitX=1;exitY=0.5;exitDx=0;exitDy=0;fontSize=14;verticalAlign=bottom;fontStyle=1;" edge="1" parent="1" source="qw2Tmhx3cPR6AS1ictm0-31" target="qw2Tmhx3cPR6AS1ictm0-40">
          <mxGeometry relative="1" as="geometry" />
        </mxCell>
        <mxCell id="qw2Tmhx3cPR6AS1ictm0-29" value="" style="rounded=0;orthogonalLoop=1;jettySize=auto;entryX=0;entryY=0.5;entryDx=0;entryDy=0;endArrow=none;endFill=0;exitX=1;exitY=0.5;exitDx=0;exitDy=0;fontSize=14;verticalAlign=bottom;fontStyle=1;" edge="1" parent="1" source="qw2Tmhx3cPR6AS1ictm0-31" target="qw2Tmhx3cPR6AS1ictm0-43">
          <mxGeometry relative="1" as="geometry" />
        </mxCell>
        <mxCell id="qw2Tmhx3cPR6AS1ictm0-30" value="" style="rounded=0;orthogonalLoop=1;jettySize=auto;entryX=0;entryY=0.5;entryDx=0;entryDy=0;endArrow=none;endFill=0;exitX=1;exitY=0.5;exitDx=0;exitDy=0;fontSize=14;verticalAlign=bottom;fontStyle=1;" edge="1" parent="1" source="qw2Tmhx3cPR6AS1ictm0-31" target="qw2Tmhx3cPR6AS1ictm0-44">
          <mxGeometry relative="1" as="geometry" />
        </mxCell>
        <mxCell id="qw2Tmhx3cPR6AS1ictm0-31" value="" style="ellipse;aspect=fixed;fontSize=14;verticalAlign=bottom;fontStyle=1;fillColor=#dae8fc;strokeColor=#6c8ebf;" vertex="1" parent="1">
          <mxGeometry x="377" y="220" width="30" height="30" as="geometry" />
        </mxCell>
        <mxCell id="qw2Tmhx3cPR6AS1ictm0-32" value="" style="rounded=0;orthogonalLoop=1;jettySize=auto;entryX=0;entryY=0.5;entryDx=0;entryDy=0;endArrow=none;endFill=0;fontSize=14;verticalAlign=bottom;fontStyle=1;" edge="1" parent="1" source="qw2Tmhx3cPR6AS1ictm0-35" target="qw2Tmhx3cPR6AS1ictm0-40">
          <mxGeometry relative="1" as="geometry" />
        </mxCell>
        <mxCell id="qw2Tmhx3cPR6AS1ictm0-33" value="" style="rounded=0;orthogonalLoop=1;jettySize=auto;entryX=0;entryY=0.5;entryDx=0;entryDy=0;endArrow=none;endFill=0;exitX=1;exitY=0.5;exitDx=0;exitDy=0;fontSize=14;verticalAlign=bottom;fontStyle=1;" edge="1" parent="1" source="qw2Tmhx3cPR6AS1ictm0-35" target="qw2Tmhx3cPR6AS1ictm0-43">
          <mxGeometry relative="1" as="geometry" />
        </mxCell>
        <mxCell id="qw2Tmhx3cPR6AS1ictm0-34" value="" style="rounded=0;orthogonalLoop=1;jettySize=auto;entryX=0;entryY=0.5;entryDx=0;entryDy=0;endArrow=none;endFill=0;exitX=1;exitY=0.5;exitDx=0;exitDy=0;fontSize=14;verticalAlign=bottom;fontStyle=1;" edge="1" parent="1" source="qw2Tmhx3cPR6AS1ictm0-35" target="qw2Tmhx3cPR6AS1ictm0-44">
          <mxGeometry relative="1" as="geometry" />
        </mxCell>
        <mxCell id="qw2Tmhx3cPR6AS1ictm0-35" value="" style="ellipse;aspect=fixed;fontSize=14;verticalAlign=bottom;fontStyle=1;fillColor=#dae8fc;strokeColor=#6c8ebf;" vertex="1" parent="1">
          <mxGeometry x="377" y="260" width="30" height="30" as="geometry" />
        </mxCell>
        <mxCell id="qw2Tmhx3cPR6AS1ictm0-36" value="" style="rounded=0;orthogonalLoop=1;jettySize=auto;entryX=0;entryY=0.5;entryDx=0;entryDy=0;endArrow=none;endFill=0;exitX=1;exitY=0.5;exitDx=0;exitDy=0;fontSize=14;verticalAlign=bottom;fontStyle=1;" edge="1" parent="1" source="qw2Tmhx3cPR6AS1ictm0-39" target="qw2Tmhx3cPR6AS1ictm0-40">
          <mxGeometry relative="1" as="geometry" />
        </mxCell>
        <mxCell id="qw2Tmhx3cPR6AS1ictm0-37" value="" style="rounded=0;orthogonalLoop=1;jettySize=auto;entryX=0;entryY=0.5;entryDx=0;entryDy=0;endArrow=none;endFill=0;exitX=1;exitY=0.5;exitDx=0;exitDy=0;fontSize=14;verticalAlign=bottom;fontStyle=1;" edge="1" parent="1" source="qw2Tmhx3cPR6AS1ictm0-39" target="qw2Tmhx3cPR6AS1ictm0-43">
          <mxGeometry relative="1" as="geometry">
            <mxPoint x="401.4357664328396" y="379.99954066836085" as="sourcePoint" />
            <mxPoint x="457" y="311.65999999999985" as="targetPoint" />
          </mxGeometry>
        </mxCell>
        <mxCell id="qw2Tmhx3cPR6AS1ictm0-38" value="" style="rounded=0;orthogonalLoop=1;jettySize=auto;entryX=0;entryY=0.5;entryDx=0;entryDy=0;endArrow=none;endFill=0;exitX=1;exitY=0.5;exitDx=0;exitDy=0;fontSize=14;verticalAlign=bottom;fontStyle=1;" edge="1" parent="1" source="qw2Tmhx3cPR6AS1ictm0-39" target="qw2Tmhx3cPR6AS1ictm0-44">
          <mxGeometry relative="1" as="geometry" />
        </mxCell>
        <mxCell id="qw2Tmhx3cPR6AS1ictm0-39" value="" style="ellipse;aspect=fixed;fontSize=14;verticalAlign=bottom;fontStyle=1;fillColor=#dae8fc;strokeColor=#6c8ebf;" vertex="1" parent="1">
          <mxGeometry x="377" y="380" width="30" height="30" as="geometry" />
        </mxCell>
        <mxCell id="qw2Tmhx3cPR6AS1ictm0-40" value="" style="ellipse;aspect=fixed;fontSize=14;verticalAlign=bottom;fontStyle=1;fillColor=#e1d5e7;strokeColor=#9673a6;" vertex="1" parent="1">
          <mxGeometry x="457" y="260" width="30" height="30" as="geometry" />
        </mxCell>
        <mxCell id="qw2Tmhx3cPR6AS1ictm0-41" value="" style="edgeStyle=orthogonalEdgeStyle;rounded=0;orthogonalLoop=1;jettySize=auto;curved=1;" edge="1" parent="1" source="qw2Tmhx3cPR6AS1ictm0-43" target="qw2Tmhx3cPR6AS1ictm0-1">
          <mxGeometry relative="1" as="geometry">
            <Array as="points">
              <mxPoint x="590" y="315" />
              <mxPoint x="590" y="135" />
            </Array>
          </mxGeometry>
        </mxCell>
        <mxCell id="qw2Tmhx3cPR6AS1ictm0-42" value="" style="edgeStyle=orthogonalEdgeStyle;rounded=0;orthogonalLoop=1;jettySize=auto;curved=1;exitX=1;exitY=0.5;exitDx=0;exitDy=0;" edge="1" parent="1" source="qw2Tmhx3cPR6AS1ictm0-43" target="qw2Tmhx3cPR6AS1ictm0-48">
          <mxGeometry relative="1" as="geometry">
            <mxPoint x="490" y="320" as="sourcePoint" />
            <Array as="points">
              <mxPoint x="487" y="320" />
              <mxPoint x="600" y="320" />
              <mxPoint x="600" y="496" />
            </Array>
          </mxGeometry>
        </mxCell>
        <mxCell id="qw2Tmhx3cPR6AS1ictm0-43" value="" style="ellipse;aspect=fixed;fontSize=14;verticalAlign=bottom;fontStyle=1;fillColor=#e1d5e7;strokeColor=#9673a6;" vertex="1" parent="1">
          <mxGeometry x="457" y="300" width="30" height="30" as="geometry" />
        </mxCell>
        <mxCell id="qw2Tmhx3cPR6AS1ictm0-44" value="" style="ellipse;aspect=fixed;fontSize=14;verticalAlign=bottom;fontStyle=1;fillColor=#e1d5e7;strokeColor=#9673a6;" vertex="1" parent="1">
          <mxGeometry x="457" y="340" width="30" height="30" as="geometry" />
        </mxCell>
        <mxCell id="qw2Tmhx3cPR6AS1ictm0-45" value="" style="edgeStyle=orthogonalEdgeStyle;rounded=0;orthogonalLoop=1;jettySize=auto;entryX=0;entryY=0.5;entryDx=0;entryDy=0;curved=1;" edge="1" parent="1" source="qw2Tmhx3cPR6AS1ictm0-46" target="qw2Tmhx3cPR6AS1ictm0-13">
          <mxGeometry relative="1" as="geometry" />
        </mxCell>
        <mxCell id="qw2Tmhx3cPR6AS1ictm0-46" value="ABC" style="rounded=1;fontSize=21;fontStyle=1;strokeWidth=3;" vertex="1" parent="1">
          <mxGeometry x="40" y="85" width="110" height="75" as="geometry" />
        </mxCell>
        <mxCell id="qw2Tmhx3cPR6AS1ictm0-47" value="Text" style="text;strokeColor=none;fillColor=none;align=center;verticalAlign=middle;rounded=0;fontSize=16;fontStyle=1;fontColor=#FF0000;" vertex="1" parent="1">
          <mxGeometry x="70" y="40" width="60" height="30" as="geometry" />
        </mxCell>
        <mxCell id="qw2Tmhx3cPR6AS1ictm0-48" value="" style="sketch=0;pointerEvents=1;shadow=0;dashed=0;strokeColor=none;fillColor=#505050;labelPosition=center;verticalLabelPosition=bottom;verticalAlign=top;outlineConnect=0;align=center;shape=mxgraph.office.devices.video_camera;" vertex="1" parent="1">
          <mxGeometry x="640" y="460" width="100" height="72.5" as="geometry" />
        </mxCell>
        <mxCell id="qw2Tmhx3cPR6AS1ictm0-49" value="" style="edgeStyle=orthogonalEdgeStyle;rounded=0;orthogonalLoop=1;jettySize=auto;entryX=0;entryY=0.5;entryDx=0;entryDy=0;curved=1;" edge="1" parent="1" source="qw2Tmhx3cPR6AS1ictm0-50" target="qw2Tmhx3cPR6AS1ictm0-13">
          <mxGeometry relative="1" as="geometry" />
        </mxCell>
        <mxCell id="qw2Tmhx3cPR6AS1ictm0-50" value="" style="sketch=0;outlineConnect=0;fontColor=#232F3E;gradientColor=none;fillColor=#100f0f;strokeColor=none;dashed=0;verticalLabelPosition=bottom;verticalAlign=top;align=center;fontSize=12;fontStyle=1;aspect=fixed;pointerEvents=1;shape=mxgraph.aws4.container_registry_image;strokeWidth=1;perimeterSpacing=1;" vertex="1" parent="1">
          <mxGeometry x="50" y="451.25" width="90" height="90" as="geometry" />
        </mxCell>
        <mxCell id="qw2Tmhx3cPR6AS1ictm0-51" value="Train" style="text;strokeColor=none;fillColor=none;align=center;verticalAlign=middle;rounded=0;fontSize=14;fontStyle=1;" vertex="1" parent="1">
          <mxGeometry x="160" y="200" width="60" height="30" as="geometry" />
        </mxCell>
        <mxCell id="qw2Tmhx3cPR6AS1ictm0-52" value="Train" style="text;strokeColor=none;fillColor=none;align=center;verticalAlign=middle;rounded=0;fontSize=14;fontStyle=1;" vertex="1" parent="1">
          <mxGeometry x="160" y="390" width="60" height="30" as="geometry" />
        </mxCell>
        <mxCell id="qw2Tmhx3cPR6AS1ictm0-53" value="Predict" style="text;strokeColor=none;fillColor=none;align=center;verticalAlign=middle;rounded=0;fontSize=14;fontStyle=1;" vertex="1" parent="1">
          <mxGeometry x="520" y="200" width="60" height="30" as="geometry" />
        </mxCell>
        <mxCell id="qw2Tmhx3cPR6AS1ictm0-54" value="Predict" style="text;strokeColor=none;fillColor=none;align=center;verticalAlign=middle;rounded=0;fontSize=14;fontStyle=1;" vertex="1" parent="1">
          <mxGeometry x="520" y="390" width="60" height="30" as="geometry" />
        </mxCell>
        <mxCell id="qw2Tmhx3cPR6AS1ictm0-55" value="Image" style="text;strokeColor=none;fillColor=none;align=center;verticalAlign=middle;rounded=0;fontSize=16;fontStyle=1;fontColor=#FF0000;" vertex="1" parent="1">
          <mxGeometry x="60" y="405" width="60" height="30" as="geometry" />
        </mxCell>
        <mxCell id="qw2Tmhx3cPR6AS1ictm0-56" value="NLP Result" style="text;strokeColor=none;fillColor=none;align=center;verticalAlign=middle;rounded=0;fontSize=16;fontStyle=1;fontColor=#FF0000;" vertex="1" parent="1">
          <mxGeometry x="646.5" y="40" width="60" height="30" as="geometry" />
        </mxCell>
        <mxCell id="qw2Tmhx3cPR6AS1ictm0-57" value="CV Result" style="text;strokeColor=none;fillColor=none;align=center;verticalAlign=middle;rounded=0;fontSize=16;fontStyle=1;fontColor=#FF0000;" vertex="1" parent="1">
          <mxGeometry x="653" y="410" width="60" height="30" as="geometry" />
        </mxCell>
      </root>
    </mxGraphModel>
  </diagram>
  <diagram id="R6ZXXTlRP1jNYZdQJZRr" name="图1.3 跨模态信息检索">
    <mxGraphModel dx="954" dy="612" grid="1" gridSize="10" guides="1" tooltips="1" connect="1" arrows="1" fold="1" page="1" pageScale="1" pageWidth="827" pageHeight="1169" math="0" shadow="0">
      <root>
        <mxCell id="0" />
        <mxCell id="1" parent="0" />
        <mxCell id="0mw0cAe45rnoMgHIm0g7-1" value="" style="rounded=0;orthogonalLoop=1;jettySize=auto;entryX=0;entryY=0.5;entryDx=0;entryDy=0;endArrow=none;endFill=0;exitX=1;exitY=0.5;exitDx=0;exitDy=0;fontSize=14;verticalAlign=bottom;fontStyle=1;" edge="1" parent="1" source="0mw0cAe45rnoMgHIm0g7-6" target="0mw0cAe45rnoMgHIm0g7-30">
          <mxGeometry relative="1" as="geometry" />
        </mxCell>
        <mxCell id="0mw0cAe45rnoMgHIm0g7-2" value="" style="edgeStyle=orthogonalEdgeStyle;rounded=0;orthogonalLoop=1;jettySize=auto;entryX=0;entryY=0.5;entryDx=0;entryDy=0;endArrow=none;endFill=0;fontSize=14;verticalAlign=bottom;fontStyle=1;" edge="1" parent="1" source="0mw0cAe45rnoMgHIm0g7-6" target="0mw0cAe45rnoMgHIm0g7-34">
          <mxGeometry relative="1" as="geometry" />
        </mxCell>
        <mxCell id="0mw0cAe45rnoMgHIm0g7-3" value="" style="rounded=0;orthogonalLoop=1;jettySize=auto;entryX=0;entryY=0.5;entryDx=0;entryDy=0;endArrow=none;endFill=0;exitX=1;exitY=0.5;exitDx=0;exitDy=0;fontSize=14;verticalAlign=bottom;fontStyle=1;" edge="1" parent="1" source="0mw0cAe45rnoMgHIm0g7-6" target="0mw0cAe45rnoMgHIm0g7-16">
          <mxGeometry relative="1" as="geometry" />
        </mxCell>
        <mxCell id="0mw0cAe45rnoMgHIm0g7-4" value="" style="rounded=0;orthogonalLoop=1;jettySize=auto;entryX=0;entryY=0.5;entryDx=0;entryDy=0;endArrow=none;endFill=0;exitX=1;exitY=0.5;exitDx=0;exitDy=0;fontSize=14;verticalAlign=bottom;fontStyle=1;" edge="1" parent="1" source="0mw0cAe45rnoMgHIm0g7-6" target="0mw0cAe45rnoMgHIm0g7-26">
          <mxGeometry relative="1" as="geometry" />
        </mxCell>
        <mxCell id="0mw0cAe45rnoMgHIm0g7-5" value="" style="rounded=0;orthogonalLoop=1;jettySize=auto;entryX=0;entryY=0.5;entryDx=0;entryDy=0;endArrow=none;endFill=0;exitX=1;exitY=0.5;exitDx=0;exitDy=0;fontSize=14;verticalAlign=bottom;fontStyle=1;" edge="1" parent="1" source="0mw0cAe45rnoMgHIm0g7-6" target="0mw0cAe45rnoMgHIm0g7-38">
          <mxGeometry relative="1" as="geometry" />
        </mxCell>
        <mxCell id="0mw0cAe45rnoMgHIm0g7-6" value="" style="ellipse;aspect=fixed;fontSize=14;verticalAlign=bottom;fontStyle=1;fillColor=#d5e8d4;strokeColor=#82b366;whiteSpace=wrap;" vertex="1" parent="1">
          <mxGeometry x="280" y="325" width="30" height="30" as="geometry" />
        </mxCell>
        <mxCell id="0mw0cAe45rnoMgHIm0g7-7" value="" style="rounded=0;orthogonalLoop=1;jettySize=auto;entryX=0;entryY=0.5;entryDx=0;entryDy=0;endArrow=none;endFill=0;exitX=1;exitY=0.5;exitDx=0;exitDy=0;fontSize=14;verticalAlign=bottom;fontStyle=1;" edge="1" parent="1" source="0mw0cAe45rnoMgHIm0g7-12" target="0mw0cAe45rnoMgHIm0g7-30">
          <mxGeometry relative="1" as="geometry" />
        </mxCell>
        <mxCell id="0mw0cAe45rnoMgHIm0g7-8" value="" style="rounded=0;orthogonalLoop=1;jettySize=auto;entryX=0;entryY=0.5;entryDx=0;entryDy=0;endArrow=none;endFill=0;exitX=1;exitY=0.5;exitDx=0;exitDy=0;fontSize=14;verticalAlign=bottom;fontStyle=1;" edge="1" parent="1" source="0mw0cAe45rnoMgHIm0g7-12" target="0mw0cAe45rnoMgHIm0g7-34">
          <mxGeometry relative="1" as="geometry" />
        </mxCell>
        <mxCell id="0mw0cAe45rnoMgHIm0g7-9" value="" style="rounded=0;orthogonalLoop=1;jettySize=auto;entryX=0;entryY=0.5;entryDx=0;entryDy=0;endArrow=none;endFill=0;fontSize=14;verticalAlign=bottom;fontStyle=1;" edge="1" parent="1" source="0mw0cAe45rnoMgHIm0g7-12" target="0mw0cAe45rnoMgHIm0g7-16">
          <mxGeometry relative="1" as="geometry" />
        </mxCell>
        <mxCell id="0mw0cAe45rnoMgHIm0g7-10" value="" style="rounded=0;orthogonalLoop=1;jettySize=auto;entryX=0;entryY=0.5;entryDx=0;entryDy=0;endArrow=none;endFill=0;exitX=1;exitY=0.5;exitDx=0;exitDy=0;fontSize=14;verticalAlign=bottom;fontStyle=1;" edge="1" parent="1" source="0mw0cAe45rnoMgHIm0g7-12" target="0mw0cAe45rnoMgHIm0g7-26">
          <mxGeometry relative="1" as="geometry" />
        </mxCell>
        <mxCell id="0mw0cAe45rnoMgHIm0g7-11" value="" style="rounded=0;orthogonalLoop=1;jettySize=auto;entryX=0;entryY=0.5;entryDx=0;entryDy=0;endArrow=none;endFill=0;exitX=1;exitY=0.5;exitDx=0;exitDy=0;fontSize=14;verticalAlign=bottom;fontStyle=1;" edge="1" parent="1" source="0mw0cAe45rnoMgHIm0g7-12" target="0mw0cAe45rnoMgHIm0g7-38">
          <mxGeometry relative="1" as="geometry" />
        </mxCell>
        <mxCell id="0mw0cAe45rnoMgHIm0g7-12" value="" style="ellipse;aspect=fixed;fontSize=14;verticalAlign=bottom;fontStyle=1;fillColor=#d5e8d4;strokeColor=#82b366;whiteSpace=wrap;" vertex="1" parent="1">
          <mxGeometry x="280" y="365" width="30" height="30" as="geometry" />
        </mxCell>
        <mxCell id="0mw0cAe45rnoMgHIm0g7-13" value="" style="rounded=0;orthogonalLoop=1;jettySize=auto;entryX=0;entryY=0.5;entryDx=0;entryDy=0;endArrow=none;endFill=0;exitX=1;exitY=0.5;exitDx=0;exitDy=0;fontSize=14;verticalAlign=bottom;fontStyle=1;" edge="1" parent="1" source="0mw0cAe45rnoMgHIm0g7-16" target="0mw0cAe45rnoMgHIm0g7-39">
          <mxGeometry relative="1" as="geometry" />
        </mxCell>
        <mxCell id="0mw0cAe45rnoMgHIm0g7-14" value="" style="rounded=0;orthogonalLoop=1;jettySize=auto;endArrow=none;endFill=0;fontSize=14;verticalAlign=bottom;fontStyle=1;" edge="1" parent="1" source="0mw0cAe45rnoMgHIm0g7-16" target="0mw0cAe45rnoMgHIm0g7-41">
          <mxGeometry relative="1" as="geometry" />
        </mxCell>
        <mxCell id="0mw0cAe45rnoMgHIm0g7-15" value="" style="rounded=0;orthogonalLoop=1;jettySize=auto;entryX=0;entryY=0.5;entryDx=0;entryDy=0;endArrow=none;endFill=0;exitX=1;exitY=0.5;exitDx=0;exitDy=0;fontSize=14;verticalAlign=bottom;fontStyle=1;" edge="1" parent="1" source="0mw0cAe45rnoMgHIm0g7-16" target="0mw0cAe45rnoMgHIm0g7-42">
          <mxGeometry relative="1" as="geometry" />
        </mxCell>
        <mxCell id="0mw0cAe45rnoMgHIm0g7-16" value="" style="ellipse;aspect=fixed;fontSize=14;verticalAlign=bottom;fontStyle=1;fillColor=#dae8fc;strokeColor=#6c8ebf;whiteSpace=wrap;" vertex="1" parent="1">
          <mxGeometry x="360" y="365" width="30" height="30" as="geometry" />
        </mxCell>
        <mxCell id="0mw0cAe45rnoMgHIm0g7-17" value="" style="rounded=0;orthogonalLoop=1;jettySize=auto;entryX=0;entryY=0.5;entryDx=0;entryDy=0;endArrow=none;endFill=0;exitX=1;exitY=0.5;exitDx=0;exitDy=0;fontSize=14;verticalAlign=bottom;fontStyle=1;" edge="1" parent="1" source="0mw0cAe45rnoMgHIm0g7-22" target="0mw0cAe45rnoMgHIm0g7-30">
          <mxGeometry relative="1" as="geometry" />
        </mxCell>
        <mxCell id="0mw0cAe45rnoMgHIm0g7-18" value="" style="rounded=0;orthogonalLoop=1;jettySize=auto;entryX=0;entryY=0.5;entryDx=0;entryDy=0;endArrow=none;endFill=0;exitX=1;exitY=0.5;exitDx=0;exitDy=0;fontSize=14;verticalAlign=bottom;fontStyle=1;" edge="1" parent="1" source="0mw0cAe45rnoMgHIm0g7-22" target="0mw0cAe45rnoMgHIm0g7-34">
          <mxGeometry relative="1" as="geometry" />
        </mxCell>
        <mxCell id="0mw0cAe45rnoMgHIm0g7-19" value="" style="rounded=0;orthogonalLoop=1;jettySize=auto;entryX=0;entryY=0.5;entryDx=0;entryDy=0;endArrow=none;endFill=0;exitX=1;exitY=0.5;exitDx=0;exitDy=0;fontSize=14;verticalAlign=bottom;fontStyle=1;" edge="1" parent="1" source="0mw0cAe45rnoMgHIm0g7-22" target="0mw0cAe45rnoMgHIm0g7-16">
          <mxGeometry relative="1" as="geometry" />
        </mxCell>
        <mxCell id="0mw0cAe45rnoMgHIm0g7-20" value="" style="rounded=0;orthogonalLoop=1;jettySize=auto;entryX=0;entryY=0.5;entryDx=0;entryDy=0;endArrow=none;endFill=0;fontSize=14;verticalAlign=bottom;fontStyle=1;" edge="1" parent="1" source="0mw0cAe45rnoMgHIm0g7-22" target="0mw0cAe45rnoMgHIm0g7-26">
          <mxGeometry relative="1" as="geometry" />
        </mxCell>
        <mxCell id="0mw0cAe45rnoMgHIm0g7-21" value="" style="rounded=0;orthogonalLoop=1;jettySize=auto;entryX=0;entryY=0.5;entryDx=0;entryDy=0;endArrow=none;endFill=0;exitX=1;exitY=0.5;exitDx=0;exitDy=0;fontSize=14;verticalAlign=bottom;fontStyle=1;" edge="1" parent="1" source="0mw0cAe45rnoMgHIm0g7-22" target="0mw0cAe45rnoMgHIm0g7-38">
          <mxGeometry relative="1" as="geometry" />
        </mxCell>
        <mxCell id="0mw0cAe45rnoMgHIm0g7-22" value="" style="ellipse;aspect=fixed;fontSize=14;verticalAlign=bottom;fontStyle=1;fillColor=#d5e8d4;strokeColor=#82b366;whiteSpace=wrap;" vertex="1" parent="1">
          <mxGeometry x="280" y="405" width="30" height="30" as="geometry" />
        </mxCell>
        <mxCell id="0mw0cAe45rnoMgHIm0g7-23" value="" style="rounded=0;orthogonalLoop=1;jettySize=auto;entryX=0;entryY=0.5;entryDx=0;entryDy=0;endArrow=none;endFill=0;exitX=1;exitY=0.5;exitDx=0;exitDy=0;fontSize=14;verticalAlign=bottom;fontStyle=1;" edge="1" parent="1" source="0mw0cAe45rnoMgHIm0g7-26" target="0mw0cAe45rnoMgHIm0g7-39">
          <mxGeometry relative="1" as="geometry" />
        </mxCell>
        <mxCell id="0mw0cAe45rnoMgHIm0g7-24" value="" style="rounded=0;orthogonalLoop=1;jettySize=auto;endArrow=none;endFill=0;fontSize=14;verticalAlign=bottom;fontStyle=1;" edge="1" parent="1" source="0mw0cAe45rnoMgHIm0g7-26" target="0mw0cAe45rnoMgHIm0g7-42">
          <mxGeometry relative="1" as="geometry" />
        </mxCell>
        <mxCell id="0mw0cAe45rnoMgHIm0g7-25" value="" style="rounded=0;orthogonalLoop=1;jettySize=auto;entryX=0;entryY=0.5;entryDx=0;entryDy=0;endArrow=none;endFill=0;exitX=1;exitY=0.5;exitDx=0;exitDy=0;fontSize=14;verticalAlign=bottom;fontStyle=1;" edge="1" parent="1" source="0mw0cAe45rnoMgHIm0g7-26" target="0mw0cAe45rnoMgHIm0g7-41">
          <mxGeometry relative="1" as="geometry" />
        </mxCell>
        <mxCell id="0mw0cAe45rnoMgHIm0g7-26" value="" style="ellipse;aspect=fixed;fontSize=14;verticalAlign=bottom;fontStyle=1;fillColor=#dae8fc;strokeColor=#6c8ebf;whiteSpace=wrap;" vertex="1" parent="1">
          <mxGeometry x="360" y="405" width="30" height="30" as="geometry" />
        </mxCell>
        <mxCell id="0mw0cAe45rnoMgHIm0g7-27" value="" style="rounded=0;orthogonalLoop=1;jettySize=auto;entryX=0;entryY=0.5;entryDx=0;entryDy=0;endArrow=none;endFill=0;exitX=1;exitY=0.5;exitDx=0;exitDy=0;fontSize=14;verticalAlign=bottom;fontStyle=1;" edge="1" parent="1" source="0mw0cAe45rnoMgHIm0g7-30" target="0mw0cAe45rnoMgHIm0g7-39">
          <mxGeometry relative="1" as="geometry" />
        </mxCell>
        <mxCell id="0mw0cAe45rnoMgHIm0g7-28" value="" style="rounded=0;orthogonalLoop=1;jettySize=auto;entryX=0;entryY=0.5;entryDx=0;entryDy=0;endArrow=none;endFill=0;exitX=1;exitY=0.5;exitDx=0;exitDy=0;fontSize=14;verticalAlign=bottom;fontStyle=1;" edge="1" parent="1" source="0mw0cAe45rnoMgHIm0g7-30" target="0mw0cAe45rnoMgHIm0g7-41">
          <mxGeometry relative="1" as="geometry" />
        </mxCell>
        <mxCell id="0mw0cAe45rnoMgHIm0g7-29" value="" style="rounded=0;orthogonalLoop=1;jettySize=auto;entryX=0;entryY=0.5;entryDx=0;entryDy=0;endArrow=none;endFill=0;exitX=1;exitY=0.5;exitDx=0;exitDy=0;fontSize=14;verticalAlign=bottom;fontStyle=1;" edge="1" parent="1" source="0mw0cAe45rnoMgHIm0g7-30" target="0mw0cAe45rnoMgHIm0g7-42">
          <mxGeometry relative="1" as="geometry" />
        </mxCell>
        <mxCell id="0mw0cAe45rnoMgHIm0g7-30" value="" style="ellipse;aspect=fixed;fontSize=14;verticalAlign=bottom;fontStyle=1;fillColor=#dae8fc;strokeColor=#6c8ebf;whiteSpace=wrap;" vertex="1" parent="1">
          <mxGeometry x="360" y="285" width="30" height="30" as="geometry" />
        </mxCell>
        <mxCell id="0mw0cAe45rnoMgHIm0g7-31" value="" style="rounded=0;orthogonalLoop=1;jettySize=auto;entryX=0;entryY=0.5;entryDx=0;entryDy=0;endArrow=none;endFill=0;fontSize=14;verticalAlign=bottom;fontStyle=1;" edge="1" parent="1" source="0mw0cAe45rnoMgHIm0g7-34" target="0mw0cAe45rnoMgHIm0g7-39">
          <mxGeometry relative="1" as="geometry" />
        </mxCell>
        <mxCell id="0mw0cAe45rnoMgHIm0g7-32" value="" style="rounded=0;orthogonalLoop=1;jettySize=auto;entryX=0;entryY=0.5;entryDx=0;entryDy=0;endArrow=none;endFill=0;exitX=1;exitY=0.5;exitDx=0;exitDy=0;fontSize=14;verticalAlign=bottom;fontStyle=1;" edge="1" parent="1" source="0mw0cAe45rnoMgHIm0g7-34" target="0mw0cAe45rnoMgHIm0g7-41">
          <mxGeometry relative="1" as="geometry" />
        </mxCell>
        <mxCell id="0mw0cAe45rnoMgHIm0g7-33" value="" style="rounded=0;orthogonalLoop=1;jettySize=auto;entryX=0;entryY=0.5;entryDx=0;entryDy=0;endArrow=none;endFill=0;exitX=1;exitY=0.5;exitDx=0;exitDy=0;fontSize=14;verticalAlign=bottom;fontStyle=1;" edge="1" parent="1" source="0mw0cAe45rnoMgHIm0g7-34" target="0mw0cAe45rnoMgHIm0g7-42">
          <mxGeometry relative="1" as="geometry" />
        </mxCell>
        <mxCell id="0mw0cAe45rnoMgHIm0g7-34" value="" style="ellipse;aspect=fixed;fontSize=14;verticalAlign=bottom;fontStyle=1;fillColor=#dae8fc;strokeColor=#6c8ebf;whiteSpace=wrap;" vertex="1" parent="1">
          <mxGeometry x="360" y="325" width="30" height="30" as="geometry" />
        </mxCell>
        <mxCell id="0mw0cAe45rnoMgHIm0g7-35" value="" style="rounded=0;orthogonalLoop=1;jettySize=auto;entryX=0;entryY=0.5;entryDx=0;entryDy=0;endArrow=none;endFill=0;exitX=1;exitY=0.5;exitDx=0;exitDy=0;fontSize=14;verticalAlign=bottom;fontStyle=1;" edge="1" parent="1" source="0mw0cAe45rnoMgHIm0g7-38" target="0mw0cAe45rnoMgHIm0g7-39">
          <mxGeometry relative="1" as="geometry" />
        </mxCell>
        <mxCell id="0mw0cAe45rnoMgHIm0g7-36" value="" style="rounded=0;orthogonalLoop=1;jettySize=auto;entryX=0;entryY=0.5;entryDx=0;entryDy=0;endArrow=none;endFill=0;exitX=1;exitY=0.5;exitDx=0;exitDy=0;fontSize=14;verticalAlign=bottom;fontStyle=1;" edge="1" parent="1" source="0mw0cAe45rnoMgHIm0g7-38" target="0mw0cAe45rnoMgHIm0g7-41">
          <mxGeometry relative="1" as="geometry">
            <mxPoint x="384.4357664328396" y="444.99954066836085" as="sourcePoint" />
            <mxPoint x="440" y="376.65999999999985" as="targetPoint" />
          </mxGeometry>
        </mxCell>
        <mxCell id="0mw0cAe45rnoMgHIm0g7-37" value="" style="rounded=0;orthogonalLoop=1;jettySize=auto;entryX=0;entryY=0.5;entryDx=0;entryDy=0;endArrow=none;endFill=0;exitX=1;exitY=0.5;exitDx=0;exitDy=0;fontSize=14;verticalAlign=bottom;fontStyle=1;" edge="1" parent="1" source="0mw0cAe45rnoMgHIm0g7-38" target="0mw0cAe45rnoMgHIm0g7-42">
          <mxGeometry relative="1" as="geometry" />
        </mxCell>
        <mxCell id="0mw0cAe45rnoMgHIm0g7-38" value="" style="ellipse;aspect=fixed;fontSize=14;verticalAlign=bottom;fontStyle=1;fillColor=#dae8fc;strokeColor=#6c8ebf;whiteSpace=wrap;" vertex="1" parent="1">
          <mxGeometry x="360" y="445" width="30" height="30" as="geometry" />
        </mxCell>
        <mxCell id="0mw0cAe45rnoMgHIm0g7-39" value="" style="ellipse;aspect=fixed;fontSize=14;verticalAlign=bottom;fontStyle=1;fillColor=#e1d5e7;strokeColor=#9673a6;whiteSpace=wrap;" vertex="1" parent="1">
          <mxGeometry x="440" y="325" width="30" height="30" as="geometry" />
        </mxCell>
        <mxCell id="0mw0cAe45rnoMgHIm0g7-40" value="" style="edgeStyle=orthogonalEdgeStyle;rounded=0;orthogonalLoop=1;jettySize=auto;" edge="1" parent="1" source="0mw0cAe45rnoMgHIm0g7-41">
          <mxGeometry relative="1" as="geometry">
            <mxPoint x="596.5" y="380.20000000000005" as="targetPoint" />
          </mxGeometry>
        </mxCell>
        <mxCell id="0mw0cAe45rnoMgHIm0g7-41" value="" style="ellipse;aspect=fixed;fontSize=14;verticalAlign=bottom;fontStyle=1;fillColor=#e1d5e7;strokeColor=#9673a6;whiteSpace=wrap;" vertex="1" parent="1">
          <mxGeometry x="440" y="365" width="30" height="30" as="geometry" />
        </mxCell>
        <mxCell id="0mw0cAe45rnoMgHIm0g7-42" value="" style="ellipse;aspect=fixed;fontSize=14;verticalAlign=bottom;fontStyle=1;fillColor=#e1d5e7;strokeColor=#9673a6;whiteSpace=wrap;" vertex="1" parent="1">
          <mxGeometry x="440" y="405" width="30" height="30" as="geometry" />
        </mxCell>
        <mxCell id="0mw0cAe45rnoMgHIm0g7-43" value="" style="edgeStyle=orthogonalEdgeStyle;rounded=0;orthogonalLoop=1;jettySize=auto;entryX=0;entryY=0.5;entryDx=0;entryDy=0;" edge="1" parent="1" source="0mw0cAe45rnoMgHIm0g7-44" target="0mw0cAe45rnoMgHIm0g7-12">
          <mxGeometry relative="1" as="geometry" />
        </mxCell>
        <mxCell id="0mw0cAe45rnoMgHIm0g7-44" value="ABC" style="rounded=1;fontSize=21;fontStyle=1;strokeWidth=3;whiteSpace=wrap;" vertex="1" parent="1">
          <mxGeometry x="30" y="340" width="120" height="80" as="geometry" />
        </mxCell>
        <mxCell id="0mw0cAe45rnoMgHIm0g7-45" value="Train" style="text;strokeColor=none;fillColor=none;align=center;verticalAlign=middle;rounded=0;fontSize=14;fontStyle=1;whiteSpace=wrap;" vertex="1" parent="1">
          <mxGeometry x="180" y="350" width="60" height="30" as="geometry" />
        </mxCell>
        <mxCell id="0mw0cAe45rnoMgHIm0g7-46" value="Predict" style="text;strokeColor=none;fillColor=none;align=center;verticalAlign=middle;rounded=0;fontSize=14;fontStyle=1;whiteSpace=wrap;" vertex="1" parent="1">
          <mxGeometry x="500" y="350" width="60" height="30" as="geometry" />
        </mxCell>
        <mxCell id="0mw0cAe45rnoMgHIm0g7-47" value="Text" style="text;strokeColor=none;fillColor=none;align=center;verticalAlign=middle;rounded=0;fontSize=16;fontStyle=1;fontColor=#FF0000;whiteSpace=wrap;" vertex="1" parent="1">
          <mxGeometry x="60" y="295" width="60" height="30" as="geometry" />
        </mxCell>
        <mxCell id="0mw0cAe45rnoMgHIm0g7-48" value="CV Result" style="text;strokeColor=none;fillColor=none;align=center;verticalAlign=middle;rounded=0;fontSize=16;fontStyle=1;fontColor=#FF0000;whiteSpace=wrap;" vertex="1" parent="1">
          <mxGeometry x="596.5" y="297.5" width="80" height="25" as="geometry" />
        </mxCell>
        <mxCell id="0mw0cAe45rnoMgHIm0g7-49" value="" style="sketch=0;pointerEvents=1;shadow=0;dashed=0;strokeColor=none;fillColor=#505050;labelPosition=center;verticalLabelPosition=bottom;verticalAlign=top;outlineConnect=0;align=center;shape=mxgraph.office.devices.video_camera;" vertex="1" parent="1">
          <mxGeometry x="596.5" y="330" width="103.5" height="90" as="geometry" />
        </mxCell>
      </root>
    </mxGraphModel>
  </diagram>
  <diagram id="x72U2__3na6zT_8suiVM" name="图1.4 多模态信息检索发展历程">
    <mxGraphModel dx="954" dy="612" grid="1" gridSize="10" guides="1" tooltips="1" connect="1" arrows="1" fold="1" page="1" pageScale="1" pageWidth="827" pageHeight="1169" math="0" shadow="0">
      <root>
        <mxCell id="0" />
        <mxCell id="1" parent="0" />
        <mxCell id="zKxEsL-E0xqHVoQYjmrX-1" value="" style="edgeStyle=orthogonalEdgeStyle;rounded=0;orthogonalLoop=1;jettySize=auto;entryX=0;entryY=0.5;entryDx=0;entryDy=0;" edge="1" parent="1" source="zKxEsL-E0xqHVoQYjmrX-5" target="zKxEsL-E0xqHVoQYjmrX-8">
          <mxGeometry relative="1" as="geometry" />
        </mxCell>
        <mxCell id="zKxEsL-E0xqHVoQYjmrX-2" value="" style="edgeStyle=orthogonalEdgeStyle;rounded=0;orthogonalLoop=1;jettySize=auto;entryX=0;entryY=0.5;entryDx=0;entryDy=0;" edge="1" parent="1" source="zKxEsL-E0xqHVoQYjmrX-5" target="zKxEsL-E0xqHVoQYjmrX-11">
          <mxGeometry relative="1" as="geometry" />
        </mxCell>
        <mxCell id="zKxEsL-E0xqHVoQYjmrX-3" value="" style="edgeStyle=orthogonalEdgeStyle;rounded=0;orthogonalLoop=1;jettySize=auto;entryX=0;entryY=0.5;entryDx=0;entryDy=0;" edge="1" parent="1" source="zKxEsL-E0xqHVoQYjmrX-5" target="zKxEsL-E0xqHVoQYjmrX-14">
          <mxGeometry relative="1" as="geometry" />
        </mxCell>
        <mxCell id="zKxEsL-E0xqHVoQYjmrX-4" value="" style="edgeStyle=orthogonalEdgeStyle;rounded=0;orthogonalLoop=1;jettySize=auto;entryX=0;entryY=0.5;entryDx=0;entryDy=0;" edge="1" parent="1" source="zKxEsL-E0xqHVoQYjmrX-5" target="zKxEsL-E0xqHVoQYjmrX-17">
          <mxGeometry relative="1" as="geometry" />
        </mxCell>
        <mxCell id="zKxEsL-E0xqHVoQYjmrX-5" value="多模态信息检索" style="rounded=1;fontSize=17;fontStyle=1;fillColor=#f8cecc;strokeColor=#b85450;" vertex="1" parent="1">
          <mxGeometry y="400" width="200" height="80" as="geometry" />
        </mxCell>
        <mxCell id="zKxEsL-E0xqHVoQYjmrX-6" value="" style="edgeStyle=orthogonalEdgeStyle;rounded=0;orthogonalLoop=1;jettySize=auto;entryX=0;entryY=0.75;entryDx=0;entryDy=0;" edge="1" parent="1" source="zKxEsL-E0xqHVoQYjmrX-8" target="zKxEsL-E0xqHVoQYjmrX-18">
          <mxGeometry relative="1" as="geometry" />
        </mxCell>
        <mxCell id="zKxEsL-E0xqHVoQYjmrX-7" value="" style="edgeStyle=orthogonalEdgeStyle;rounded=0;orthogonalLoop=1;jettySize=auto;entryX=0;entryY=0.5;entryDx=0;entryDy=0;" edge="1" parent="1" source="zKxEsL-E0xqHVoQYjmrX-8" target="zKxEsL-E0xqHVoQYjmrX-19">
          <mxGeometry relative="1" as="geometry" />
        </mxCell>
        <mxCell id="zKxEsL-E0xqHVoQYjmrX-8" value="2012-2018&#xa;神经网络模型" style="rounded=1;fontSize=15;fontStyle=1;fillColor=#dae8fc;strokeColor=#6c8ebf;" vertex="1" parent="1">
          <mxGeometry x="280" y="240" width="260" height="40" as="geometry" />
        </mxCell>
        <mxCell id="zKxEsL-E0xqHVoQYjmrX-9" value="" style="edgeStyle=orthogonalEdgeStyle;rounded=0;orthogonalLoop=1;jettySize=auto;entryX=0;entryY=0.5;entryDx=0;entryDy=0;" edge="1" parent="1" source="zKxEsL-E0xqHVoQYjmrX-11" target="zKxEsL-E0xqHVoQYjmrX-20">
          <mxGeometry relative="1" as="geometry" />
        </mxCell>
        <mxCell id="zKxEsL-E0xqHVoQYjmrX-10" value="" style="edgeStyle=orthogonalEdgeStyle;rounded=0;orthogonalLoop=1;jettySize=auto;entryX=0;entryY=0.5;entryDx=0;entryDy=0;" edge="1" parent="1" source="zKxEsL-E0xqHVoQYjmrX-11" target="zKxEsL-E0xqHVoQYjmrX-21">
          <mxGeometry relative="1" as="geometry" />
        </mxCell>
        <mxCell id="zKxEsL-E0xqHVoQYjmrX-11" value="2018-2021&#xa;高质量标签，进行预训练模型训练" style="rounded=1;fontSize=15;fontStyle=1;fillColor=#dae8fc;strokeColor=#6c8ebf;" vertex="1" parent="1">
          <mxGeometry x="280" y="360" width="260" height="40" as="geometry" />
        </mxCell>
        <mxCell id="zKxEsL-E0xqHVoQYjmrX-12" value="" style="edgeStyle=orthogonalEdgeStyle;rounded=0;orthogonalLoop=1;jettySize=auto;entryX=0;entryY=0.5;entryDx=0;entryDy=0;" edge="1" parent="1" source="zKxEsL-E0xqHVoQYjmrX-14" target="zKxEsL-E0xqHVoQYjmrX-22">
          <mxGeometry relative="1" as="geometry" />
        </mxCell>
        <mxCell id="zKxEsL-E0xqHVoQYjmrX-13" value="" style="edgeStyle=orthogonalEdgeStyle;rounded=0;orthogonalLoop=1;jettySize=auto;" edge="1" parent="1" source="zKxEsL-E0xqHVoQYjmrX-14" target="zKxEsL-E0xqHVoQYjmrX-23">
          <mxGeometry relative="1" as="geometry" />
        </mxCell>
        <mxCell id="zKxEsL-E0xqHVoQYjmrX-14" value="2021-2023&#xa;超大标签训练模型" style="rounded=1;fontSize=15;fontStyle=1;fillColor=#dae8fc;strokeColor=#6c8ebf;" vertex="1" parent="1">
          <mxGeometry x="280" y="480" width="260" height="40" as="geometry" />
        </mxCell>
        <mxCell id="zKxEsL-E0xqHVoQYjmrX-15" value="" style="edgeStyle=orthogonalEdgeStyle;rounded=0;orthogonalLoop=1;jettySize=auto;entryX=0;entryY=0.5;entryDx=0;entryDy=0;" edge="1" parent="1" source="zKxEsL-E0xqHVoQYjmrX-17" target="zKxEsL-E0xqHVoQYjmrX-24">
          <mxGeometry relative="1" as="geometry" />
        </mxCell>
        <mxCell id="zKxEsL-E0xqHVoQYjmrX-16" value="" style="edgeStyle=orthogonalEdgeStyle;rounded=0;orthogonalLoop=1;jettySize=auto;entryX=0;entryY=0.5;entryDx=0;entryDy=0;" edge="1" parent="1" source="zKxEsL-E0xqHVoQYjmrX-17" target="zKxEsL-E0xqHVoQYjmrX-25">
          <mxGeometry relative="1" as="geometry" />
        </mxCell>
        <mxCell id="zKxEsL-E0xqHVoQYjmrX-17" value="2023-至今&#xa;将更多模态的信息与大语言模型融合" style="rounded=1;fontSize=15;fontStyle=1;fillColor=#dae8fc;strokeColor=#6c8ebf;" vertex="1" parent="1">
          <mxGeometry x="280" y="600" width="260" height="40" as="geometry" />
        </mxCell>
        <mxCell id="zKxEsL-E0xqHVoQYjmrX-18" value="RNN" style="rounded=1;fontSize=15;fontStyle=0;fillColor=#fff2cc;strokeColor=#d6b656;" vertex="1" parent="1">
          <mxGeometry x="600" y="220" width="200" height="20" as="geometry" />
        </mxCell>
        <mxCell id="zKxEsL-E0xqHVoQYjmrX-19" value="CNN" style="rounded=1;fontSize=15;fontStyle=0;fillColor=#fff2cc;strokeColor=#d6b656;" vertex="1" parent="1">
          <mxGeometry x="600" y="280" width="200" height="20" as="geometry" />
        </mxCell>
        <mxCell id="zKxEsL-E0xqHVoQYjmrX-20" value="VisualBERT" style="rounded=1;fontSize=15;fontStyle=0;fillColor=#fff2cc;strokeColor=#d6b656;" vertex="1" parent="1">
          <mxGeometry x="600" y="340" width="200" height="20" as="geometry" />
        </mxCell>
        <mxCell id="zKxEsL-E0xqHVoQYjmrX-21" value="VilBERT" style="rounded=1;fontSize=15;fontStyle=0;fillColor=#fff2cc;strokeColor=#d6b656;" vertex="1" parent="1">
          <mxGeometry x="600" y="400" width="200" height="20" as="geometry" />
        </mxCell>
        <mxCell id="zKxEsL-E0xqHVoQYjmrX-22" value="CLIP" style="rounded=1;fontSize=15;fontStyle=0;fillColor=#fff2cc;strokeColor=#d6b656;" vertex="1" parent="1">
          <mxGeometry x="600" y="460" width="200" height="20" as="geometry" />
        </mxCell>
        <mxCell id="zKxEsL-E0xqHVoQYjmrX-23" value="PLAVA" style="rounded=1;fontSize=15;fontStyle=0;fillColor=#fff2cc;strokeColor=#d6b656;" vertex="1" parent="1">
          <mxGeometry x="600" y="520" width="200" height="20" as="geometry" />
        </mxCell>
        <mxCell id="zKxEsL-E0xqHVoQYjmrX-24" value="ImageBind" style="rounded=1;fontSize=15;fontStyle=0;fillColor=#fff2cc;strokeColor=#d6b656;" vertex="1" parent="1">
          <mxGeometry x="600" y="580" width="200" height="20" as="geometry" />
        </mxCell>
        <mxCell id="zKxEsL-E0xqHVoQYjmrX-25" value="MultiModal-CoT" style="rounded=1;fontSize=15;fontStyle=0;fillColor=#fff2cc;strokeColor=#d6b656;" vertex="1" parent="1">
          <mxGeometry x="600" y="640" width="200" height="20" as="geometry" />
        </mxCell>
      </root>
    </mxGraphModel>
  </diagram>
  <diagram id="ziqY8kxG1j-6eUallnjr" name="图1.5 特征金字塔网络">
    <mxGraphModel dx="954" dy="612" grid="1" gridSize="10" guides="1" tooltips="1" connect="1" arrows="1" fold="1" page="1" pageScale="1" pageWidth="827" pageHeight="1169" math="0" shadow="0">
      <root>
        <mxCell id="0" />
        <mxCell id="1" parent="0" />
        <mxCell id="-ZtDusX3uhdMRV8nj8KS-1" value="" style="shape=parallelogram;perimeter=parallelogramPerimeter;whiteSpace=wrap;html=1;fixedSize=1;strokeColor=#66B2FF;align=center;verticalAlign=middle;fontFamily=Helvetica;fontSize=12;fontColor=default;fillColor=default;strokeWidth=4;shadow=0;" vertex="1" parent="1">
          <mxGeometry x="220" y="100" width="110" height="30" as="geometry" />
        </mxCell>
        <mxCell id="-ZtDusX3uhdMRV8nj8KS-2" value="" style="shape=parallelogram;perimeter=parallelogramPerimeter;whiteSpace=wrap;html=1;fixedSize=1;strokeColor=#66B2FF;align=center;verticalAlign=middle;fontFamily=Helvetica;fontSize=12;fontColor=default;fillColor=default;strokeWidth=3;" vertex="1" parent="1">
          <mxGeometry x="205" y="150" width="130" height="30" as="geometry" />
        </mxCell>
        <mxCell id="-ZtDusX3uhdMRV8nj8KS-3" value="" style="rounded=0;whiteSpace=wrap;html=1;dashed=1;" vertex="1" parent="1">
          <mxGeometry x="250" y="120" width="60" height="40" as="geometry" />
        </mxCell>
        <mxCell id="-ZtDusX3uhdMRV8nj8KS-4" value="" style="rounded=0;whiteSpace=wrap;html=1;dashed=1;" vertex="1" parent="1">
          <mxGeometry x="130" y="270" width="220" height="120" as="geometry" />
        </mxCell>
        <mxCell id="-ZtDusX3uhdMRV8nj8KS-5" value="" style="shape=parallelogram;perimeter=parallelogramPerimeter;whiteSpace=wrap;html=1;fixedSize=1;strokeColor=#66B2FF;align=center;verticalAlign=middle;fontFamily=Helvetica;fontSize=12;fontColor=default;fillColor=default;strokeWidth=3;" vertex="1" parent="1">
          <mxGeometry x="90" y="30" width="80" height="30" as="geometry" />
        </mxCell>
        <mxCell id="-ZtDusX3uhdMRV8nj8KS-6" value="" style="shape=parallelogram;perimeter=parallelogramPerimeter;whiteSpace=wrap;html=1;fixedSize=1;strokeColor=#66B2FF;align=center;verticalAlign=middle;fontFamily=Helvetica;fontSize=12;fontColor=default;fillColor=default;strokeWidth=2;" vertex="1" parent="1">
          <mxGeometry x="80" y="80" width="100" height="30" as="geometry" />
        </mxCell>
        <mxCell id="-ZtDusX3uhdMRV8nj8KS-7" value="" style="shape=parallelogram;perimeter=parallelogramPerimeter;whiteSpace=wrap;html=1;fixedSize=1;strokeColor=#66B2FF;align=center;verticalAlign=middle;fontFamily=Helvetica;fontSize=12;fontColor=default;fillColor=default;" vertex="1" parent="1">
          <mxGeometry x="70" y="130" width="120" height="40" as="geometry" />
        </mxCell>
        <mxCell id="-ZtDusX3uhdMRV8nj8KS-8" value="图片" style="shape=parallelogram;perimeter=parallelogramPerimeter;whiteSpace=wrap;html=1;fixedSize=1;strokeColor=#FFE599;align=center;verticalAlign=middle;fontFamily=Helvetica;fontSize=12;fontColor=default;fillColor=default;" vertex="1" parent="1">
          <mxGeometry x="55" y="190" width="150" height="50" as="geometry" />
        </mxCell>
        <mxCell id="-ZtDusX3uhdMRV8nj8KS-9" value="" style="shape=parallelogram;perimeter=parallelogramPerimeter;whiteSpace=wrap;html=1;fixedSize=1;strokeColor=#66B2FF;align=center;verticalAlign=middle;fontFamily=Helvetica;fontSize=12;fontColor=default;fillColor=default;strokeWidth=3;" vertex="1" parent="1">
          <mxGeometry x="240" y="50" width="90" height="30" as="geometry" />
        </mxCell>
        <mxCell id="-ZtDusX3uhdMRV8nj8KS-10" value="" style="endArrow=classicThin;html=1;rounded=0;endFill=1;" edge="1" parent="1">
          <mxGeometry width="50" height="50" relative="1" as="geometry">
            <mxPoint x="129.66" y="200" as="sourcePoint" />
            <mxPoint x="129.66" y="170" as="targetPoint" />
          </mxGeometry>
        </mxCell>
        <mxCell id="-ZtDusX3uhdMRV8nj8KS-11" value="" style="endArrow=classicThin;html=1;rounded=0;endFill=1;" edge="1" parent="1">
          <mxGeometry width="50" height="50" relative="1" as="geometry">
            <mxPoint x="129.66" y="140" as="sourcePoint" />
            <mxPoint x="129.66" y="110" as="targetPoint" />
          </mxGeometry>
        </mxCell>
        <mxCell id="-ZtDusX3uhdMRV8nj8KS-12" value="" style="endArrow=classicThin;html=1;rounded=0;endFill=1;" edge="1" parent="1">
          <mxGeometry width="50" height="50" relative="1" as="geometry">
            <mxPoint x="129.66" y="90" as="sourcePoint" />
            <mxPoint x="129.66" y="60" as="targetPoint" />
          </mxGeometry>
        </mxCell>
        <mxCell id="-ZtDusX3uhdMRV8nj8KS-13" value="" style="endArrow=none;html=1;rounded=0;startArrow=none;startFill=0;endFill=0;exitX=0.875;exitY=0.6;exitDx=0;exitDy=0;exitPerimeter=0;" edge="1" parent="1" source="-ZtDusX3uhdMRV8nj8KS-5">
          <mxGeometry width="50" height="50" relative="1" as="geometry">
            <mxPoint x="160" y="48" as="sourcePoint" />
            <mxPoint x="282" y="48" as="targetPoint" />
          </mxGeometry>
        </mxCell>
        <mxCell id="-ZtDusX3uhdMRV8nj8KS-14" value="" style="endArrow=classicThin;html=1;rounded=0;endFill=1;" edge="1" parent="1">
          <mxGeometry width="50" height="50" relative="1" as="geometry">
            <mxPoint x="281.91999999999996" y="48" as="sourcePoint" />
            <mxPoint x="281.91999999999996" y="70" as="targetPoint" />
          </mxGeometry>
        </mxCell>
        <mxCell id="-ZtDusX3uhdMRV8nj8KS-15" value="" style="endArrow=classicThin;html=1;rounded=0;startArrow=none;startFill=0;endFill=1;" edge="1" parent="1">
          <mxGeometry width="50" height="50" relative="1" as="geometry">
            <mxPoint x="160" y="94.75999999999999" as="sourcePoint" />
            <mxPoint x="280" y="95" as="targetPoint" />
          </mxGeometry>
        </mxCell>
        <mxCell id="-ZtDusX3uhdMRV8nj8KS-16" value="" style="endArrow=classicThin;html=1;rounded=0;endFill=1;exitX=0.462;exitY=1.036;exitDx=0;exitDy=0;exitPerimeter=0;entryX=0.545;entryY=0.2;entryDx=0;entryDy=0;entryPerimeter=0;" edge="1" parent="1" source="-ZtDusX3uhdMRV8nj8KS-9">
          <mxGeometry width="50" height="50" relative="1" as="geometry">
            <mxPoint x="281.96000000000004" y="84.38999999999999" as="sourcePoint" />
            <mxPoint x="281.95000000000005" y="110" as="targetPoint" />
            <Array as="points" />
          </mxGeometry>
        </mxCell>
        <mxCell id="-ZtDusX3uhdMRV8nj8KS-17" value="" style="endArrow=classicThin;html=1;rounded=0;endFill=1;exitX=0.564;exitY=1;exitDx=0;exitDy=0;exitPerimeter=0;entryX=0.565;entryY=0.033;entryDx=0;entryDy=0;entryPerimeter=0;" edge="1" parent="1" source="-ZtDusX3uhdMRV8nj8KS-1">
          <mxGeometry width="50" height="50" relative="1" as="geometry">
            <mxPoint x="281.87999999999994" y="141.36999999999998" as="sourcePoint" />
            <mxPoint x="282.03" y="162.63" as="targetPoint" />
          </mxGeometry>
        </mxCell>
        <mxCell id="-ZtDusX3uhdMRV8nj8KS-18" value="" style="endArrow=classicThin;html=1;rounded=0;startArrow=none;startFill=0;endFill=1;exitX=0.938;exitY=0.353;exitDx=0;exitDy=0;exitPerimeter=0;" edge="1" parent="1" source="-ZtDusX3uhdMRV8nj8KS-7">
          <mxGeometry width="50" height="50" relative="1" as="geometry">
            <mxPoint x="158" y="144" as="sourcePoint" />
            <mxPoint x="280" y="144" as="targetPoint" />
          </mxGeometry>
        </mxCell>
        <mxCell id="-ZtDusX3uhdMRV8nj8KS-19" value="" style="endArrow=classicThin;html=1;rounded=0;startArrow=none;startFill=0;endFill=1;exitX=0.922;exitY=0.496;exitDx=0;exitDy=0;exitPerimeter=0;" edge="1" parent="1" source="-ZtDusX3uhdMRV8nj8KS-9">
          <mxGeometry width="50" height="50" relative="1" as="geometry">
            <mxPoint x="320" y="64.83" as="sourcePoint" />
            <mxPoint x="370" y="65.12" as="targetPoint" />
          </mxGeometry>
        </mxCell>
        <mxCell id="-ZtDusX3uhdMRV8nj8KS-20" value="预测" style="rounded=0;whiteSpace=wrap;html=1;" vertex="1" parent="1">
          <mxGeometry x="370" y="50" width="60" height="30" as="geometry" />
        </mxCell>
        <mxCell id="-ZtDusX3uhdMRV8nj8KS-21" value="" style="endArrow=classicThin;html=1;rounded=0;startArrow=none;startFill=0;endFill=1;exitX=0.937;exitY=0.498;exitDx=0;exitDy=0;exitPerimeter=0;" edge="1" parent="1" source="-ZtDusX3uhdMRV8nj8KS-1">
          <mxGeometry width="50" height="50" relative="1" as="geometry">
            <mxPoint x="330" y="115" as="sourcePoint" />
            <mxPoint x="370" y="115.12" as="targetPoint" />
          </mxGeometry>
        </mxCell>
        <mxCell id="-ZtDusX3uhdMRV8nj8KS-22" value="预测" style="rounded=0;whiteSpace=wrap;html=1;" vertex="1" parent="1">
          <mxGeometry x="370" y="100" width="60" height="30" as="geometry" />
        </mxCell>
        <mxCell id="-ZtDusX3uhdMRV8nj8KS-23" value="" style="endArrow=classicThin;html=1;rounded=0;startArrow=none;startFill=0;endFill=1;exitX=0.937;exitY=0.498;exitDx=0;exitDy=0;exitPerimeter=0;" edge="1" parent="1">
          <mxGeometry width="50" height="50" relative="1" as="geometry">
            <mxPoint x="327" y="164.82999999999998" as="sourcePoint" />
            <mxPoint x="370" y="165" as="targetPoint" />
          </mxGeometry>
        </mxCell>
        <mxCell id="-ZtDusX3uhdMRV8nj8KS-24" value="预测" style="rounded=0;whiteSpace=wrap;html=1;" vertex="1" parent="1">
          <mxGeometry x="370" y="150" width="60" height="30" as="geometry" />
        </mxCell>
        <mxCell id="-ZtDusX3uhdMRV8nj8KS-25" value="1x1 conv" style="rounded=0;whiteSpace=wrap;html=1;" vertex="1" parent="1">
          <mxGeometry x="170" y="340" width="60" height="20" as="geometry" />
        </mxCell>
        <mxCell id="-ZtDusX3uhdMRV8nj8KS-26" value="" style="endArrow=classicThin;html=1;rounded=0;endFill=1;" edge="1" parent="1">
          <mxGeometry width="50" height="50" relative="1" as="geometry">
            <mxPoint x="140" y="349.71" as="sourcePoint" />
            <mxPoint x="170" y="349.71" as="targetPoint" />
          </mxGeometry>
        </mxCell>
        <mxCell id="-ZtDusX3uhdMRV8nj8KS-27" value="+" style="ellipse;whiteSpace=wrap;html=1;aspect=fixed;" vertex="1" parent="1">
          <mxGeometry x="273" y="340" width="20" height="20" as="geometry" />
        </mxCell>
        <mxCell id="-ZtDusX3uhdMRV8nj8KS-28" value="" style="endArrow=classicThin;html=1;rounded=0;endFill=1;exitX=1;exitY=0.5;exitDx=0;exitDy=0;" edge="1" parent="1" source="-ZtDusX3uhdMRV8nj8KS-25">
          <mxGeometry width="50" height="50" relative="1" as="geometry">
            <mxPoint x="243" y="349.71" as="sourcePoint" />
            <mxPoint x="273" y="349.71" as="targetPoint" />
          </mxGeometry>
        </mxCell>
        <mxCell id="-ZtDusX3uhdMRV8nj8KS-29" value="2x up" style="rounded=0;whiteSpace=wrap;html=1;" vertex="1" parent="1">
          <mxGeometry x="253" y="300" width="60" height="20" as="geometry" />
        </mxCell>
        <mxCell id="-ZtDusX3uhdMRV8nj8KS-30" value="" style="endArrow=classicThin;html=1;rounded=0;endFill=1;entryX=0.5;entryY=0;entryDx=0;entryDy=0;exitX=0.5;exitY=1;exitDx=0;exitDy=0;" edge="1" parent="1" source="-ZtDusX3uhdMRV8nj8KS-29" target="-ZtDusX3uhdMRV8nj8KS-27">
          <mxGeometry width="50" height="50" relative="1" as="geometry">
            <mxPoint x="270" y="330" as="sourcePoint" />
            <mxPoint x="300" y="330" as="targetPoint" />
          </mxGeometry>
        </mxCell>
        <mxCell id="-ZtDusX3uhdMRV8nj8KS-31" value="" style="endArrow=classicThin;html=1;rounded=0;endFill=1;entryX=0.5;entryY=0;entryDx=0;entryDy=0;exitX=0.5;exitY=1;exitDx=0;exitDy=0;" edge="1" parent="1">
          <mxGeometry width="50" height="50" relative="1" as="geometry">
            <mxPoint x="282.86" y="280" as="sourcePoint" />
            <mxPoint x="282.86" y="300" as="targetPoint" />
          </mxGeometry>
        </mxCell>
        <mxCell id="-ZtDusX3uhdMRV8nj8KS-32" value="" style="endArrow=classicThin;html=1;rounded=0;endFill=1;entryX=0.5;entryY=0;entryDx=0;entryDy=0;exitX=0.5;exitY=1;exitDx=0;exitDy=0;" edge="1" parent="1">
          <mxGeometry width="50" height="50" relative="1" as="geometry">
            <mxPoint x="282.8" y="360" as="sourcePoint" />
            <mxPoint x="282.8" y="380" as="targetPoint" />
          </mxGeometry>
        </mxCell>
        <mxCell id="-ZtDusX3uhdMRV8nj8KS-33" value="" style="endArrow=none;dashed=1;html=1;rounded=0;exitX=0;exitY=0;exitDx=0;exitDy=0;" edge="1" parent="1" source="-ZtDusX3uhdMRV8nj8KS-4">
          <mxGeometry width="50" height="50" relative="1" as="geometry">
            <mxPoint x="200" y="170" as="sourcePoint" />
            <mxPoint x="250" y="120" as="targetPoint" />
          </mxGeometry>
        </mxCell>
        <mxCell id="-ZtDusX3uhdMRV8nj8KS-34" value="" style="endArrow=none;dashed=1;html=1;rounded=0;exitX=1;exitY=0;exitDx=0;exitDy=0;" edge="1" parent="1" source="-ZtDusX3uhdMRV8nj8KS-4">
          <mxGeometry width="50" height="50" relative="1" as="geometry">
            <mxPoint x="260" y="170" as="sourcePoint" />
            <mxPoint x="310" y="120" as="targetPoint" />
          </mxGeometry>
        </mxCell>
      </root>
    </mxGraphModel>
  </diagram>
  <diagram id="UFKqbekq9lvz9bJ3mS9A" name="图1.6 技术路线图">
    <mxGraphModel dx="954" dy="612" grid="1" gridSize="10" guides="1" tooltips="1" connect="1" arrows="1" fold="1" page="1" pageScale="1" pageWidth="827" pageHeight="1169" math="0" shadow="0">
      <root>
        <mxCell id="0" />
        <mxCell id="1" parent="0" />
        <mxCell id="2ha6SFs4bMfEcRmdG7Rd-1" value="" style="rounded=0;whiteSpace=wrap;html=1;dashed=1;fontStyle=0" vertex="1" parent="1">
          <mxGeometry x="320" y="40" width="200" height="660" as="geometry" />
        </mxCell>
        <mxCell id="2ha6SFs4bMfEcRmdG7Rd-2" value="" style="rounded=0;whiteSpace=wrap;html=1;dashed=1;fontStyle=0" vertex="1" parent="1">
          <mxGeometry x="20" y="40" width="200" height="660" as="geometry" />
        </mxCell>
        <mxCell id="2ha6SFs4bMfEcRmdG7Rd-3" style="edgeStyle=orthogonalEdgeStyle;rounded=0;orthogonalLoop=1;jettySize=auto;html=1;entryX=0.5;entryY=0;entryDx=0;entryDy=0;fontStyle=0" edge="1" parent="1" source="2ha6SFs4bMfEcRmdG7Rd-4" target="2ha6SFs4bMfEcRmdG7Rd-6">
          <mxGeometry relative="1" as="geometry" />
        </mxCell>
        <mxCell id="2ha6SFs4bMfEcRmdG7Rd-4" value="多模态特征提取" style="rounded=0;whiteSpace=wrap;html=1;fontStyle=0" vertex="1" parent="1">
          <mxGeometry x="40" y="60" width="160" height="40" as="geometry" />
        </mxCell>
        <mxCell id="2ha6SFs4bMfEcRmdG7Rd-5" style="edgeStyle=orthogonalEdgeStyle;rounded=0;orthogonalLoop=1;jettySize=auto;html=1;entryX=0.5;entryY=0;entryDx=0;entryDy=0;fontStyle=0" edge="1" parent="1" source="2ha6SFs4bMfEcRmdG7Rd-6" target="2ha6SFs4bMfEcRmdG7Rd-10">
          <mxGeometry relative="1" as="geometry" />
        </mxCell>
        <mxCell id="2ha6SFs4bMfEcRmdG7Rd-6" value="模态语义关系学习" style="rounded=0;whiteSpace=wrap;html=1;fontStyle=0" vertex="1" parent="1">
          <mxGeometry x="40" y="170" width="160" height="40" as="geometry" />
        </mxCell>
        <mxCell id="2ha6SFs4bMfEcRmdG7Rd-7" style="edgeStyle=orthogonalEdgeStyle;rounded=0;orthogonalLoop=1;jettySize=auto;html=1;entryX=0.5;entryY=0;entryDx=0;entryDy=0;fontStyle=0" edge="1" parent="1" source="2ha6SFs4bMfEcRmdG7Rd-8" target="2ha6SFs4bMfEcRmdG7Rd-13">
          <mxGeometry relative="1" as="geometry" />
        </mxCell>
        <mxCell id="2ha6SFs4bMfEcRmdG7Rd-8" value="" style="rounded=0;whiteSpace=wrap;html=1;fontStyle=0" vertex="1" parent="1">
          <mxGeometry x="40" y="270" width="160" height="140" as="geometry" />
        </mxCell>
        <mxCell id="2ha6SFs4bMfEcRmdG7Rd-9" value="两阶段预训练" style="rounded=0;whiteSpace=wrap;html=1;dashed=1;fontStyle=0" vertex="1" parent="1">
          <mxGeometry x="70" y="310" width="100" height="40" as="geometry" />
        </mxCell>
        <mxCell id="2ha6SFs4bMfEcRmdG7Rd-10" value="基于CLIP模型的MIRBC" style="text;html=1;align=center;verticalAlign=middle;whiteSpace=wrap;rounded=0;fontStyle=0" vertex="1" parent="1">
          <mxGeometry x="40" y="270" width="160" height="40" as="geometry" />
        </mxCell>
        <mxCell id="2ha6SFs4bMfEcRmdG7Rd-11" value="&lt;span style=&quot;background-color: initial;&quot;&gt;模型集成&lt;/span&gt;" style="rounded=0;whiteSpace=wrap;html=1;dashed=1;fontStyle=0" vertex="1" parent="1">
          <mxGeometry x="70" y="360" width="100" height="40" as="geometry" />
        </mxCell>
        <mxCell id="2ha6SFs4bMfEcRmdG7Rd-12" value="" style="rounded=0;whiteSpace=wrap;html=1;fontStyle=0" vertex="1" parent="1">
          <mxGeometry x="40" y="490" width="160" height="190" as="geometry" />
        </mxCell>
        <mxCell id="2ha6SFs4bMfEcRmdG7Rd-13" value="基于DALL-E2模型的EPSEN" style="text;html=1;align=center;verticalAlign=middle;whiteSpace=wrap;rounded=0;fontStyle=0" vertex="1" parent="1">
          <mxGeometry x="40" y="490" width="160" height="40" as="geometry" />
        </mxCell>
        <mxCell id="2ha6SFs4bMfEcRmdG7Rd-14" value="优化的ResNet50&lt;div&gt;（特征金字塔）&lt;/div&gt;" style="rounded=0;whiteSpace=wrap;html=1;dashed=1;fontStyle=0" vertex="1" parent="1">
          <mxGeometry x="70" y="530" width="100" height="40" as="geometry" />
        </mxCell>
        <mxCell id="2ha6SFs4bMfEcRmdG7Rd-15" value="深度语义嵌入" style="rounded=0;whiteSpace=wrap;html=1;dashed=1;fontStyle=0" vertex="1" parent="1">
          <mxGeometry x="70" y="580" width="100" height="40" as="geometry" />
        </mxCell>
        <mxCell id="2ha6SFs4bMfEcRmdG7Rd-16" value="特征融合" style="rounded=0;whiteSpace=wrap;html=1;dashed=1;fontStyle=0" vertex="1" parent="1">
          <mxGeometry x="70" y="630" width="100" height="40" as="geometry" />
        </mxCell>
        <mxCell id="2ha6SFs4bMfEcRmdG7Rd-17" style="edgeStyle=orthogonalEdgeStyle;rounded=0;orthogonalLoop=1;jettySize=auto;html=1;entryX=0.5;entryY=0;entryDx=0;entryDy=0;fontStyle=0" edge="1" parent="1" source="2ha6SFs4bMfEcRmdG7Rd-18" target="2ha6SFs4bMfEcRmdG7Rd-22">
          <mxGeometry relative="1" as="geometry" />
        </mxCell>
        <mxCell id="2ha6SFs4bMfEcRmdG7Rd-18" value="多模态信息检索系统需求分析" style="rounded=0;whiteSpace=wrap;html=1;fontStyle=0" vertex="1" parent="1">
          <mxGeometry x="340" y="60" width="160" height="40" as="geometry" />
        </mxCell>
        <mxCell id="2ha6SFs4bMfEcRmdG7Rd-19" style="edgeStyle=orthogonalEdgeStyle;rounded=0;orthogonalLoop=1;jettySize=auto;html=1;entryX=0.5;entryY=0;entryDx=0;entryDy=0;fontStyle=0" edge="1" parent="1" source="2ha6SFs4bMfEcRmdG7Rd-20" target="2ha6SFs4bMfEcRmdG7Rd-28">
          <mxGeometry relative="1" as="geometry" />
        </mxCell>
        <mxCell id="2ha6SFs4bMfEcRmdG7Rd-20" value="" style="rounded=0;whiteSpace=wrap;html=1;fontStyle=0" vertex="1" parent="1">
          <mxGeometry x="340" y="140" width="160" height="240" as="geometry" />
        </mxCell>
        <mxCell id="2ha6SFs4bMfEcRmdG7Rd-21" value="架构设计" style="rounded=0;whiteSpace=wrap;html=1;dashed=1;fontStyle=0" vertex="1" parent="1">
          <mxGeometry x="370" y="180" width="100" height="40" as="geometry" />
        </mxCell>
        <mxCell id="2ha6SFs4bMfEcRmdG7Rd-22" value="系统设计" style="text;html=1;align=center;verticalAlign=middle;whiteSpace=wrap;rounded=0;fontStyle=0" vertex="1" parent="1">
          <mxGeometry x="340" y="140" width="160" height="40" as="geometry" />
        </mxCell>
        <mxCell id="2ha6SFs4bMfEcRmdG7Rd-23" value="功能模块设计" style="rounded=0;whiteSpace=wrap;html=1;dashed=1;fontStyle=0" vertex="1" parent="1">
          <mxGeometry x="370" y="230" width="100" height="40" as="geometry" />
        </mxCell>
        <mxCell id="2ha6SFs4bMfEcRmdG7Rd-24" value="界面设计" style="rounded=0;whiteSpace=wrap;html=1;dashed=1;fontStyle=0" vertex="1" parent="1">
          <mxGeometry x="370" y="280" width="100" height="40" as="geometry" />
        </mxCell>
        <mxCell id="2ha6SFs4bMfEcRmdG7Rd-25" value="数据库设计" style="rounded=0;whiteSpace=wrap;html=1;dashed=1;fontStyle=0" vertex="1" parent="1">
          <mxGeometry x="370" y="330" width="100" height="40" as="geometry" />
        </mxCell>
        <mxCell id="2ha6SFs4bMfEcRmdG7Rd-26" style="edgeStyle=orthogonalEdgeStyle;rounded=0;orthogonalLoop=1;jettySize=auto;html=1;entryX=0.5;entryY=0;entryDx=0;entryDy=0;fontStyle=0" edge="1" parent="1" source="2ha6SFs4bMfEcRmdG7Rd-27" target="2ha6SFs4bMfEcRmdG7Rd-32">
          <mxGeometry relative="1" as="geometry" />
        </mxCell>
        <mxCell id="2ha6SFs4bMfEcRmdG7Rd-27" value="" style="rounded=0;whiteSpace=wrap;html=1;fontStyle=0" vertex="1" parent="1">
          <mxGeometry x="340" y="415" width="160" height="190" as="geometry" />
        </mxCell>
        <mxCell id="2ha6SFs4bMfEcRmdG7Rd-28" value="系统实现" style="text;html=1;align=center;verticalAlign=middle;whiteSpace=wrap;rounded=0;fontStyle=0" vertex="1" parent="1">
          <mxGeometry x="340" y="415" width="160" height="40" as="geometry" />
        </mxCell>
        <mxCell id="2ha6SFs4bMfEcRmdG7Rd-29" value="数据集导入" style="rounded=0;whiteSpace=wrap;html=1;dashed=1;fontStyle=0" vertex="1" parent="1">
          <mxGeometry x="370" y="455" width="100" height="40" as="geometry" />
        </mxCell>
        <mxCell id="2ha6SFs4bMfEcRmdG7Rd-30" value="模型训练" style="rounded=0;whiteSpace=wrap;html=1;dashed=1;fontStyle=0" vertex="1" parent="1">
          <mxGeometry x="370" y="505" width="100" height="40" as="geometry" />
        </mxCell>
        <mxCell id="2ha6SFs4bMfEcRmdG7Rd-31" value="模型嵌入" style="rounded=0;whiteSpace=wrap;html=1;dashed=1;fontStyle=0" vertex="1" parent="1">
          <mxGeometry x="370" y="555" width="100" height="40" as="geometry" />
        </mxCell>
        <mxCell id="2ha6SFs4bMfEcRmdG7Rd-32" value="系统测试" style="rounded=0;whiteSpace=wrap;html=1;fontStyle=0" vertex="1" parent="1">
          <mxGeometry x="340" y="640" width="160" height="40" as="geometry" />
        </mxCell>
        <mxCell id="2ha6SFs4bMfEcRmdG7Rd-33" value="" style="shape=flexArrow;endArrow=classic;html=1;rounded=0;fontStyle=0" edge="1" parent="1">
          <mxGeometry width="50" height="50" relative="1" as="geometry">
            <mxPoint x="240" y="339.5" as="sourcePoint" />
            <mxPoint x="310" y="339.5" as="targetPoint" />
          </mxGeometry>
        </mxCell>
        <mxCell id="2ha6SFs4bMfEcRmdG7Rd-34" value="多模态信息检索模型" style="text;html=1;align=center;verticalAlign=middle;whiteSpace=wrap;rounded=0;fontStyle=1" vertex="1" parent="1">
          <mxGeometry x="60" width="120" height="30" as="geometry" />
        </mxCell>
        <mxCell id="2ha6SFs4bMfEcRmdG7Rd-35" value="多模态信息检索系统" style="text;html=1;align=center;verticalAlign=middle;whiteSpace=wrap;rounded=0;fontStyle=1" vertex="1" parent="1">
          <mxGeometry x="360" width="120" height="30" as="geometry" />
        </mxCell>
      </root>
    </mxGraphModel>
  </diagram>
</mxfile>
